<?xml version="1.0" encoding="UTF-8"?><svg id="a" xmlns="http://www.w3.org/2000/svg" xmlns:xlink="http://www.w3.org/1999/xlink" viewBox="0 0 430.7345 177.3509"><defs><style>.c{fill:none;}.d{font-family:Roboto-Bold, Roboto;font-size:61.5475px;font-weight:700;}.e{fill:#000023;}.f{letter-spacing:0em;}.g{fill:#5b4fff;}.h{clip-path:url(#b);}.i{letter-spacing:-.0111em;}.j{letter-spacing:-.0091em;}.k{letter-spacing:-.0113em;}.l{letter-spacing:-.0099em;}</style><clipPath id="b"><rect class="c" x="-37.8891" y="-403.5808" width="505.3269" height="236.8062"/></clipPath></defs><g class="h"><path class="e" d="M211.4413,13.7149C109.1874,13.7149,25.997-67.2471,25.997-166.7637s83.1904-180.4795,185.4443-180.4795,185.4443,80.9629,185.4443,180.4795S313.6952,13.7149,211.4413,13.7149ZM211.4413-345.2431c-101.1514,0-183.4443,80.0654-183.4443,178.4795S110.2899,11.7149,211.4413,11.7149s183.4443-80.0654,183.4443-178.4785-82.293-178.4795-183.4443-178.4795Z"/><path class="e" d="M209.2372,45.5039C90.6698,45.5039-5.7921-49.4394-5.7921-166.1396s96.4619-211.6436,215.0293-211.6436,215.0303,94.9434,215.0303,211.6436S327.8056,45.5039,209.2372,45.5039ZM209.2372-375.7832C91.7724-375.7832-3.7921-281.7373-3.7921-166.1396S91.7724,43.5039,209.2372,43.5039s213.0303-94.0459,213.0303-209.6436-95.5654-209.6436-213.0303-209.6436Z"/></g><path class="e" d="M411.6239,161.9961h-211.6191c-10.5371,0-19.1104-8.5732-19.1104-19.1104V19.8613c0-10.5371,8.5732-19.1104,19.1104-19.1104l211.6396,4.4316c10.5166,0,19.0898,8.5732,19.0898,19.1104v118.5928c0,10.5371-8.5732,19.1104-19.1104,19.1104ZM199.9843,2.751c-9.4141,0-17.0898,7.6758-17.0898,17.1104v123.0244c0,9.4346,7.6758,17.1104,17.1104,17.1104h211.6191c9.4346,0,17.1104-7.6758,17.1104-17.1104V24.293c0-9.4346-7.6758-17.1104-17.1104-17.1104L199.9843,2.751Z"/><text class="d" transform="translate(237.1444 102.002)"><tspan class="k" x="0" y="0">I</tspan><tspan class="i" x="17.2461" y="0">n</tspan><tspan class="l" x="51.0332" y="0">p</tspan><tspan class="j" x="85.0742" y="0">u</tspan><tspan class="f" x="118.9541" y="0">t</tspan></text><path class="e" d="M137.1923,28.5459c-.2559,0-.5117-.0977-.707-.293-.3906-.3906-.3906-1.0234,0-1.4141l10.8154-10.8154-10.8154-10.8164c-.3906-.3906-.3906-1.0234,0-1.4141s1.0234-.3906,1.4141,0l11.5225,11.5234c.3906.3906.3906,1.0234,0,1.4141l-11.5225,11.5225c-.1953.1953-.4512.293-.707.293Z"/><path class="e" d="M37.1493,21.4551c-.5332,0-.9766-.4219-.998-.96-.0225-.5518.4072-1.0176.959-1.0391l110.416-4.4316c.5557-.0469,1.0176.4062,1.0391.959.0225.5518-.4072,1.0176-.959,1.0391l-110.416,4.4316c-.0137.001-.0273.001-.041.001Z"/><path class="e" d="M144.9472,98.6895c-.2559,0-.5117-.0977-.707-.293-.3906-.3906-.3906-1.0234,0-1.4141l10.8164-10.8154-10.8164-10.8154c-.3906-.3906-.3906-1.0234,0-1.4141s1.0234-.3906,1.4141,0l11.5234,11.5225c.1875.1875.293.4414.293.707s-.1055.5195-.293.707l-11.5234,11.5225c-.1953.1953-.4512.293-.707.293Z"/><path class="e" d="M155.3222,87.167h-.0186l-122.4648-2.2158c-.5518-.0098-.9912-.4658-.9814-1.0186.0098-.5459.4561-.9814,1-.9814h.0186l122.4648,2.2158c.5518.0098.9912.4658.9814,1.0186-.0098.5459-.4561.9814-1,.9814Z"/><path class="e" d="M133.869,165.5098c-.2559,0-.5117-.0977-.707-.293-.3906-.3906-.3906-1.0234,0-1.4141l10.8154-10.8154-10.8154-10.8164c-.3906-.3906-.3906-1.0234,0-1.4141s1.0234-.3906,1.4141,0l11.5225,11.5234c.3906.3906.3906,1.0234,0,1.4141l-11.5225,11.5225c-.1953.1953-.4512.293-.707.293Z"/><path class="e" d="M38.4599,155.0947c-.5479,0-.9941-.4404-1-.9893-.0059-.5527.4375-1.0049.9893-1.0107l105.7832-1.1074h.0107c.5479,0,.9941.4404,1,.9893.0059.5527-.4375,1.0049-.9893,1.0107l-105.7832,1.1074h-.0107Z"/><polygon class="g" points="44.6799 39.8016 5.9861 39.8016 5.9861 1.1079 44.6799 0 44.6799 39.8016"/><rect class="g" x="2.8818" y="132.4484" width="44.9024" height="44.9024" rx="22.4512" ry="22.4512" transform="translate(116.9505 27.4559) rotate(45)"/><polygon class="g" points="24.9637 63.2122 0 106.4506 52.1432 108.6663 24.9637 63.2122"/></svg>