<?xml version="1.0" encoding="UTF-8" standalone="no"?><svg width="47" height="47" viewBox="0 0 47 47" fill="none" xmlns="http://www.w3.org/2000/svg">
<g clip-path="url(#clip0_682_5958)">
<path fill-rule="evenodd" clip-rule="evenodd" d="M0.691406 2.15063V44.8638H46.3091V2.15063H0.691406ZM33.9495 42.0459C33.8042 41.0584 33.6738 40.5936 33.4848 40.0274L32.0472 35.438H25.6571L24.5098 36.9486L25.541 40.0565C25.7444 40.7099 25.9621 41.2183 26.3396 42.0459H22.7089L22.1137 40.0565L20.6612 42.0459H17.7418L17.1171 40.0708L15.5778 42.0459H12.6587C12.7313 41.9881 12.7894 41.9296 12.8474 41.8718C13.5881 41.2181 14.0529 40.6229 14.4594 40.0855L16.3186 37.6454L15.5922 35.4378H9.21673L4.23525 42.0459H1.14176C2.31825 41.0293 2.62328 40.7099 3.05877 40.1289L12.4989 27.6535C12.6285 27.4834 12.7449 27.3039 12.8474 27.1163C13.0217 26.8259 13.1814 26.4919 13.2687 26.0851H16.333C16.333 26.7679 16.4346 27.1453 16.58 27.6683L18.7291 34.4071L19.8329 32.9549L18.0756 27.5957C17.9449 27.2036 17.7852 26.6952 17.4656 26.0851H21.1835C21.2852 26.6806 21.3869 27.16 21.5466 27.6827L22.229 29.7887L23.8264 27.6686C24.1897 27.1748 24.6837 26.6228 24.9012 26.0854H28.1544C27.5158 26.5938 27.1086 27.1312 26.7168 27.6393L23.1151 32.4177L23.7393 34.393L28.8954 27.654C29.0259 27.4508 29.1712 27.2765 29.3165 27.0878C29.505 26.7974 29.6652 26.4926 29.7671 26.0856H32.8021C32.846 26.623 32.9184 27.0878 33.0635 27.5815L36.9704 40.0426C37.1589 40.7104 37.29 41.1171 37.7833 42.0466H33.9495V42.0459Z" fill="#A0A0A1"/>
<path fill-rule="evenodd" clip-rule="evenodd" d="M10.668 33.4627H15.025L13.7034 29.4397L10.668 33.4627ZM19.5271 36.8612L20.2242 39.0689L21.3427 37.602L20.5727 35.438L19.5271 36.8612ZM27.21 33.4627H31.4217L30.1001 29.4397L27.21 33.4627Z" fill="#A0A0A1"/>
<path fill-rule="evenodd" clip-rule="evenodd" d="M25.6562 25.2717H28.3284L45.7855 2.13623H43.1134L25.6562 25.2717Z" fill="#DFE0E1"/>
</g>
<defs>
<clipPath id="clip0_682_5958">
<rect width="47" height="47" fill="white"/>
</clipPath>
</defs>
</svg>
