<?xml version="1.0" encoding="UTF-8" standalone="no"?><svg width="152" height="27" viewBox="0 0 152 27" fill="none" xmlns="http://www.w3.org/2000/svg">
<g clip-path="url(#clip0_682_5943)">
<path fill-rule="evenodd" clip-rule="evenodd" d="M151.49 8.07845C150.674 6.60068 148.928 5.48754 147.018 5.48754C145.348 5.48754 143.871 6.16886 143.871 7.94411C143.871 9.44108 145.723 10.4583 147.651 11.7057C149.763 13.0204 151.95 14.6421 151.95 17.4633C151.95 21.1386 148.371 23.4032 144.226 23.4032C142.527 23.4032 140.752 23.0673 138.746 22.3093L139.073 17.4153C140.042 19.3633 141.846 20.9083 144.504 20.9083C146.567 20.9083 148.083 19.9199 148.083 18.2022C148.083 16.7244 146.845 15.8128 145.32 14.9012C142.115 12.9724 140.09 11.4274 140.09 8.63502C140.09 4.45118 143.592 3.05017 147.22 3.05017C149.331 3.05017 150.655 3.43401 151.998 3.43401L151.49 8.07845ZM133.737 12.4638C133.277 13.2315 132.701 14.2678 132.336 15.0259C132.039 16.4749 131.885 18.4037 131.885 20.534C131.885 21.4168 132.039 22.6163 132.442 23.0194H127.135C128.076 22.1269 128.46 16.6764 128.402 14.9492C127.692 12.4926 126.723 10.132 125.254 7.2628C124.314 5.46835 123.22 3.76027 122.539 3.43401C123.729 3.33805 125.254 3.26128 125.993 3.26128C127.308 3.26128 127.673 3.43401 128.479 5.20926C129.745 8.07845 130.686 10.2279 131.252 11.8305C132.595 9.72896 133.536 8.27997 134.754 6.3032C135.062 5.8234 135.311 5.20926 135.311 4.62391C135.311 4.1729 135.234 3.66431 135.033 3.43401H140.291C139.274 3.66431 134.707 10.8421 133.737 12.4638ZM121.445 23.1921C119.766 23.1921 119.641 23.1441 118.297 18.5285L117.818 16.83C117.002 17.2138 115.553 17.3865 113.24 17.3865H110.909L110.505 18.2502C109.92 19.5456 109.133 21.0618 109.133 22.1365C109.133 22.386 109.152 22.6643 109.258 23.0194H95.3919C96.1787 22.1365 96.4282 19.2673 96.8121 14.0663L96.8888 12.8189C97.0903 9.85371 97.2439 7.56987 97.2247 5.97694C97.1959 4.6527 97.0712 3.81785 96.7161 3.43401H102.071C101.313 4.01936 101.025 7.16684 100.67 12.3678L100.574 13.6057C100.449 15.5345 100.19 17.5113 100.19 19.4401C100.19 20.3325 100.545 20.534 101.466 20.534C104.71 20.534 105.525 20.4572 106.993 19.4689C107.915 17.7896 108.951 15.6881 109.968 13.5098L111.34 10.5926C112.636 7.84815 113.902 5.05573 113.902 4.52795C113.902 4.14411 113.807 3.78906 113.653 3.43401H117.914C117.914 3.43401 119.641 9.82492 120.025 11.1971L120.86 14.2966C122.309 19.4976 123.23 22.031 124.448 23.0194C123.431 23.1441 121.982 23.1921 121.445 23.1921ZM115.275 8.03047L112.127 14.8532H117.251L115.275 8.03047ZM86.8898 23.4032C81.8328 23.4032 78.9156 19.2386 78.9156 14.5749C78.9156 8.07845 82.4469 3.05017 89.1737 3.05017C91.2848 3.05017 92.2732 3.43401 93.9717 3.43401L93.4631 8.4335C92.5035 6.67744 90.9297 5.48754 88.8186 5.48754C84.6252 5.48754 82.9267 10.0072 82.9267 13.884C82.9267 18.0966 85.2873 20.4093 88.4348 20.4093C90.1429 20.4093 91.6398 19.9487 94.154 18.2022C93.1368 21.4456 90.7762 23.4032 86.8898 23.4032ZM76.4494 23.8542C75.0004 23.8542 74.6454 23.6239 74.1656 22.9714L68.6767 15.3522C68.2449 14.7764 67.9186 14.287 67.2373 14.287H67.103L67.007 15.7648C66.8727 17.7704 66.8055 19.3633 66.8055 20.5628C66.8247 21.8774 66.9782 22.6931 67.3333 23.0194H62.0267C62.7848 22.338 63.0631 20.0542 63.4949 14.0663L63.5717 12.8189C63.7828 9.88249 63.9363 7.59866 63.9075 5.99613C63.8787 4.60472 63.7252 3.74108 63.351 3.43401C66.3737 3.43401 70.5863 3.43401 70.5863 3.43401C72.9469 3.43401 76.1999 3.83704 76.1999 7.67542C76.1999 10.8133 74.0888 12.5406 71.4691 13.3562C71.7282 13.5865 72.1792 14.1623 72.4671 14.5173L76.4494 19.7951C78.9348 23.0673 79.1459 23.2209 80.0287 23.6815C78.9156 23.8062 77.4186 23.8542 76.4494 23.8542ZM69.3676 5.8234C68.8878 5.8234 68.3025 5.8234 67.8419 5.87138C67.6883 6.70623 67.5636 8.15522 67.3813 10.487L67.2853 11.8593C67.5348 11.9072 67.8706 11.936 68.1681 11.936C70.6055 11.936 72.2848 10.4583 72.2848 8.23199C72.2848 6.70623 71.2196 5.8234 69.3676 5.8234ZM57.8908 23.1921C56.2116 23.1921 56.0868 23.1441 54.7434 18.5285L54.254 16.83C53.4383 17.2138 51.9989 17.3865 49.6863 17.3865H47.3449L46.9419 18.2502C46.5388 19.1618 45.5408 21.0426 45.5696 22.1365C45.5696 22.386 45.5984 22.6355 45.6944 23.0194H41.002C42.3454 21.6759 44.0439 18.5572 46.4141 13.5098L47.7767 10.5926C49.0242 7.95371 50.3484 4.95977 50.3484 4.52795C50.3484 4.14411 50.2429 3.78906 50.0893 3.43401H54.3595C54.3595 3.43401 55.4727 7.67542 56.4706 11.1971L57.3055 14.2966C58.7545 19.4976 59.6661 22.031 60.8848 23.0194C59.7908 23.1441 58.4186 23.1921 57.8908 23.1921ZM51.7206 8.03047L48.5444 14.8532H53.6974L51.7206 8.03047ZM33.3828 23.0194H26.5312C27.3949 22.2613 27.6156 19.2865 27.9994 14.0663L28.0762 12.8476C28.2777 9.8729 28.4313 7.59866 28.4025 5.99613C28.3833 4.62391 28.2297 3.74108 27.8459 3.43401H35.5131C37.3459 3.43401 41.002 3.53957 41.002 7.33957C41.002 9.8729 38.6414 11.4466 36.4823 12.0128C39.5338 12.3103 41.8176 13.788 41.8176 16.9259C41.8176 20.3325 38.6126 23.0194 33.3828 23.0194ZM33.0757 13.5577H31.6843L31.4828 16.4461C31.3772 17.7128 31.3292 18.7779 31.3004 20.0542C31.3004 20.2269 31.857 20.6108 33.1812 20.6108C35.9257 20.6108 37.7297 19.2386 37.7297 16.9835C37.7297 14.4694 35.6666 13.5577 33.0757 13.5577ZM33.709 5.79462C33.3348 5.79462 32.8262 5.79462 32.3368 5.8426C32.1353 7.21482 32.0105 8.52946 31.9146 9.97845C31.9146 9.97845 31.8378 11.1204 31.8378 11.1684H32.3368C34.8318 11.1684 37.1156 10.3047 37.1156 8.03047C37.1156 6.70623 36.0217 5.79462 33.709 5.79462ZM31.8378 11.1684C31.8378 11.1747 31.8378 11.1747 31.8378 11.1684Z" fill="#A0A0A1"/>
<mask id="mask0_682_5943" style="mask-type:luminance" maskUnits="userSpaceOnUse" x="-172" y="-83" width="249" height="161">
<path d="M-171.503 60.0924V-33.3233C-171.502 -38.7018 -167.503 -42.5843 -162.225 -42.5843C-167.503 -42.5843 -171.781 -46.9476 -171.781 -52.3233L-171.805 -78.5922C-171.805 -80.948 -169.932 -82.8557 -167.626 -82.8557H59.6259C69.2074 -82.8557 76.9744 -74.941 76.9744 -65.178V68.8334C76.9744 73.2466 73.4623 77.7672 69.1287 77.7672H-154.154C-163.739 77.7672 -171.503 67.3393 -171.503 60.0924Z" fill="white"/>
</mask>
<g mask="url(#mask0_682_5943)">
<path d="M11.2529 0.689575C12.059 0.718363 12.7115 0.881494 13.2489 1.36129C13.7863 1.83149 13.8918 2.97341 13.9206 3.482C13.9494 3.98099 13.9302 5.48756 14.458 6.22644C14.9954 6.98453 15.5807 7.20523 16.2716 7.20523C16.4316 7.20523 16.5979 7.19244 16.7706 7.16685C17.6918 7.06129 17.9509 6.51432 17.9509 6.51432C17.9509 6.51432 17.1833 6.30321 17.1833 5.33402C17.1737 4.6719 17.7494 4.05776 18.5939 3.80826C18.8625 3.73149 19.16 3.69311 19.4671 3.69311C20.4555 3.69311 21.5686 4.10574 22.3171 5.07493C24.006 7.31079 24.1403 10.5542 23.7277 13.577C23.3151 16.6093 21.3863 19.4113 21.3287 19.4977C21.2999 19.5456 21.2519 19.5744 21.2232 19.5744C21.1976 19.5744 21.172 19.5616 21.1464 19.536C20.3115 18.7492 19.5247 17.636 19.1888 16.9067C18.8242 17.185 19.0161 17.7992 19.208 18.4613C19.4095 19.1426 19.8701 20.0254 20.0237 20.3037C20.1868 20.582 20.3979 20.9179 20.1196 21.0906C20.0876 21.1098 20.0492 21.1194 20.0045 21.1194C19.6302 21.1194 18.757 20.4668 17.7782 19.1618C16.6843 17.7032 16.1277 16.3982 16.1277 16.3982C16.0509 16.4269 15.9262 16.5517 15.9358 16.9259C15.9454 17.3002 16.3388 18.7012 17.0873 19.9871C17.8454 21.2825 18.5555 22.0982 18.6802 22.2709C18.7666 22.386 18.6994 22.4532 18.6418 22.4916C18.5939 22.53 17.2408 23.7871 15.2928 24.8522C12.9898 26.0805 11.9631 26.2916 11.9631 26.2916C11.9631 26.2916 10.9363 26.0709 8.63325 24.8426C6.68527 23.7871 5.34184 22.53 5.28426 22.4916C5.22669 22.4532 5.14992 22.386 5.24588 22.2805C5.38022 22.0982 6.08073 21.2825 6.83881 19.9871C7.59689 18.6916 7.98073 17.3002 7.99032 16.9259C8.01911 16.5517 7.88477 16.4174 7.7984 16.3982C7.7984 16.3982 7.24184 17.7032 6.1479 19.1618C5.16911 20.4668 4.29588 21.1194 3.92164 21.1194C3.87686 21.1194 3.84167 21.1098 3.81608 21.0906C3.5282 20.9179 3.73931 20.5916 3.90244 20.3133C4.06558 20.0254 4.52618 19.133 4.7181 18.4613C4.91962 17.8088 5.10194 17.1946 4.74689 16.9067C4.40143 17.636 3.61457 18.7396 2.77972 19.5456C2.76052 19.5648 2.73813 19.5744 2.71255 19.5744C2.67416 19.5744 2.63578 19.5456 2.59739 19.4881C2.53982 19.4113 0.620626 16.6093 0.198404 13.577C-0.214223 10.5542 -0.0702832 7.31079 1.61861 5.07493C2.35749 4.10574 3.47063 3.69311 4.44941 3.69311C4.76608 3.69311 5.06356 3.73149 5.34184 3.81786C6.17669 4.05776 6.75244 4.6623 6.76204 5.33402C6.75244 6.30321 5.98477 6.51432 5.98477 6.51432C5.98477 6.51432 6.26305 7.07089 7.15547 7.17644C7.41457 7.19564 7.66406 7.19564 7.66406 7.19564C9.57366 7.17644 10.0439 5.79463 10.1206 4.54715C10.1974 3.29968 9.53527 2.81988 8.63325 2.71432C8.5277 2.70473 8.43174 2.69513 8.33578 2.69513C7.68325 2.69513 7.49133 2.99261 7.49133 2.99261C7.19386 2.51281 7.45295 1.86988 8.00952 1.50523C8.58527 1.12139 9.25699 1.04463 9.77517 1.04463C9.87113 1.04463 9.96069 1.04782 10.0439 1.05422C10.2646 0.804727 10.4085 0.689575 11.0898 0.689575C11.1346 0.689575 11.189 0.689575 11.2529 0.689575Z" fill="#A0A0A1"/>
</g>
</g>
<defs>
<clipPath id="clip0_682_5943">
<rect width="152" height="25.6212" fill="white" transform="translate(0 0.689453)"/>
</clipPath>
</defs>
</svg>
