<?xml version="1.0" encoding="UTF-8" standalone="no"?><svg xmlns="http://www.w3.org/2000/svg" width="399.28" height="370.05" viewBox="0 0 399.28 370.05"><title>dev-teams-icons</title><ellipse cx="105.55" cy="102.55" rx="10.7" ry="18.44" transform="translate(-0.61 0.63) rotate(-0.34)" fill="#d0f1f7"/><path d="M105.65,122c-4,0-11.74-8.74-11.8-19.37-.07-10.9,5-19.47,11.58-19.51h0c6.54,0,11.71,8.5,11.77,19.37h0c.07,10.64-7.63,19.49-11.58,19.51Zm-.17-36.88h0c-5.35,0-9.66,7.89-9.6,17.5.06,10.19,7.44,17.38,9.8,17.38h0c2.35,0,9.66-7.29,9.6-17.5h0C115.2,93.06,110.72,85.11,105.48,85.11Z" fill="#4c5054"/><path d="M105.7,93.87a11.41,11.41,0,0,1-8.61-3.94l1.51-1.31a9.4,9.4,0,0,0,13.86.39l1.43,1.39a11.31,11.31,0,0,1-8.12,3.47Z" fill="#4c5054"/><rect x="104.85" y="92.86" width="2" height="28.12" transform="translate(-0.63 0.63) rotate(-0.34)" fill="#4c5054"/><polygon points="94.72 100.07 88.27 98.05 84.76 95.43 85.95 93.83 89.19 96.24 95.32 98.16 94.72 100.07" fill="#4c5054"/><polygon points="95.91 93.18 89.83 91.08 87.58 86.85 89.35 85.91 91.23 89.45 96.56 91.29 95.91 93.18" fill="#4c5054"/><polygon points="98.62 88.57 93 85.19 92.13 81.2 94.09 80.78 94.77 83.92 99.65 86.86 98.62 88.57" fill="#4c5054"/><rect x="101.34" y="69.61" width="2" height="14.74" transform="translate(-16.07 28.2) rotate(-14.56)" fill="#4c5054"/><polygon points="116.66 99.94 116.04 98.04 122.15 96.05 125.36 93.6 126.57 95.19 123.09 97.84 116.66 99.94" fill="#4c5054"/><polygon points="115.39 93.06 114.72 91.18 120.03 89.27 121.87 85.72 123.64 86.64 121.45 90.89 115.39 93.06" fill="#4c5054"/><polygon points="112.63 88.49 111.58 86.79 116.42 83.79 117.07 80.64 119.03 81.04 118.21 85.04 112.63 88.49" fill="#4c5054"/><rect x="101.4" y="75.95" width="14.74" height="2" transform="translate(7.95 164.05) rotate(-76.1)" fill="#4c5054"/><path d="M230.4,74.92s-3.66-.35-5.37,2.36a9.73,9.73,0,0,0-1.67,5.58c.06.47-3.86,2.58-4.17,9.56s-.64,12.57.77,14.63,9.35,10.21,11.93,9.17,11.19-7.75,11.41-12.72-.06-14.8-2.1-17.23a31.84,31.84,0,0,0-2.72-3S239.4,79,236,76.77,230.4,74.92,230.4,74.92Z" fill="#fcf1e0"/><path d="M231.13,117.4c-.65,0-2.38-.15-9.74-6.85a10.76,10.76,0,0,1-3.5-7.87L217.83,93a13.2,13.2,0,0,1,13.6-13.28,13.46,13.46,0,0,1,12.8,13.41l.06,9.41a10.75,10.75,0,0,1-3.39,7.9c-7.46,7-9.1,7-9.72,7ZM231,81.67a11.21,11.21,0,0,0-11.2,11.27l.06,9.72a8.77,8.77,0,0,0,2.85,6.41c6.74,6.14,8.28,6.33,8.43,6.33s1.68-.21,8.36-6.47a8.74,8.74,0,0,0,2.76-6.42l-.06-9.42a11.44,11.44,0,0,0-10.85-11.42Z" fill="#4c5054"/><path d="M230.5,93.7a24.07,24.07,0,0,1-11.83-2.83l1-1.73a22.17,22.17,0,0,0,11,2.56,21.82,21.82,0,0,0,11.48-3l1.1,1.68a23.9,23.9,0,0,1-12.57,3.34Z" fill="#4c5054"/><path d="M239.88,83.79l-2-.31a8.2,8.2,0,0,0,.08-1.12,7,7,0,0,0-7-7h0a7,7,0,0,0-7,7.07,7.61,7.61,0,0,0,.07,1l-2,.29a8.64,8.64,0,0,1-.1-1.24,9,9,0,0,1,9-9.08H231a9,9,0,0,1,9,9A8.57,8.57,0,0,1,239.88,83.79Z" fill="#4c5054"/><rect x="219.23" y="76.15" width="2" height="7.48" transform="translate(11.19 185.66) rotate(-46.78)" fill="#4c5054"/><rect x="216.72" y="80.59" width="2" height="7.54" transform="translate(71.94 266.75) rotate(-72.54)" fill="#4c5054"/><rect x="211.84" y="88.7" width="7.33" height="2" transform="translate(-1.04 2.53) rotate(-0.67)" fill="#4c5054"/><rect x="237.82" y="78.76" width="7.48" height="2" transform="translate(12.18 189.76) rotate(-43.89)" fill="#4c5054"/><rect x="240.35" y="83.2" width="7.54" height="2" transform="translate(-14.08 80.24) rotate(-18.15)" fill="#4c5054"/><rect x="242.73" y="88.52" width="7.33" height="2" fill="#4c5054"/><rect x="230.1" y="92.7" width="2" height="23.7" transform="translate(-0.62 1.38) rotate(-0.34)" fill="#4c5054"/><rect x="289.46" y="72.22" width="2" height="5.72" transform="translate(-2.97 137.53) rotate(-26.51)" fill="#4c5054"/><rect x="294.48" y="74.04" width="5.72" height="2" transform="translate(100.31 310.02) rotate(-64.19)" fill="#4c5054"/><path d="M293.9,118.32c5.78,0,10.44-5.55,10.4-11.33s-6.52-9.5-7.6-10.18c0,0,1.95-2.56,1.94-3.93a4.7,4.7,0,0,0-2.22-3.95.45.45,0,0,1,0-.78,5.78,5.78,0,1,0-5.36.06.54.54,0,0,1,.07.93,4.67,4.67,0,0,0-1.89,3.8c0,1.37,1.79,3.91,1.79,3.91-1,.69-7.51,4.49-7.48,10.27s4.76,11.23,10.53,11.2" fill="#c4e6df"/><path d="M293.91,119.32h0a11,11,0,0,1-8-3.75,12.8,12.8,0,0,1-3.38-8.45c0-3.81,2.37-7.36,7.1-10.56a8.27,8.27,0,0,1-1.41-3.62A5.73,5.73,0,0,1,290,88.76a6.76,6.76,0,0,1-.59-11,6.81,6.81,0,0,1,5.84-1.3,6.76,6.76,0,0,1,2.34,12.1,5.66,5.66,0,0,1,2,4.29,8,8,0,0,1-1.51,3.66c5.88,3.86,7.16,7.79,7.17,10.46,0,6.46-5.17,12.17-11.2,12.33h-.19Zm-.2-41a4.79,4.79,0,0,0-4.8,4.82,4.72,4.72,0,0,0,2.62,4.2,1.55,1.55,0,0,1,.21,2.63,3.64,3.64,0,0,0-1.49,3,9.2,9.2,0,0,0,1.61,3.34l.59.84-1.12.74c-4.51,2.91-6.79,6-6.77,9.26a10.83,10.83,0,0,0,2.85,7.11,9,9,0,0,0,6.58,3.1c5-.09,9.34-4.89,9.31-10.32,0-2.26-1.23-5.7-6.94-9.22l-1.11-.7.66-.87a9,9,0,0,0,1.73-3.32,3.68,3.68,0,0,0-1.75-3.11,1.46,1.46,0,0,1-.69-1.29,1.4,1.4,0,0,1,.76-1.22,4.77,4.77,0,0,0,2.36-5.45,4.7,4.7,0,0,0-3.48-3.4A5.44,5.44,0,0,0,293.71,78.29ZM297,88.08Z" fill="#4c5054"/><path d="M301.14,114.93a10.29,10.29,0,0,0-7.35-2.83,10.48,10.48,0,0,0-7.1,2.71l-1.38-1.44a12.78,12.78,0,0,1,17.24.15Z" fill="#4c5054"/><polygon points="289.03 91.73 281.64 89.7 279.12 83.41 280.98 82.67 283.13 88.04 289.56 89.8 289.03 91.73" fill="#4c5054"/><polygon points="282.24 94.67 276.15 92.64 276.79 90.74 282.56 92.67 289.36 92.63 289.37 94.63 282.24 94.67" fill="#4c5054"/><polygon points="281.1 100.16 274.94 98.11 275.57 96.21 281 98.02 289.58 94.19 290.39 96.02 281.1 100.16" fill="#4c5054"/><polygon points="298.14 91.68 297.59 89.75 304 87.91 306.09 82.52 307.95 83.24 305.51 89.56 298.14 91.68" fill="#4c5054"/><polygon points="297.84 94.58 297.83 92.58 304.63 92.53 310.38 90.54 311.03 92.43 304.97 94.53 297.84 94.58" fill="#4c5054"/><polygon points="306.17 100.01 296.83 95.98 297.63 94.14 306.25 97.87 311.66 95.99 312.31 97.89 306.17 100.01" fill="#4c5054"/><polygon points="172.07 86.16 170.92 84.52 180.91 77.51 182.45 70.22 184.4 70.63 182.71 78.69 172.07 86.16" fill="#4c5054"/><polygon points="182.69 89.23 171.68 87.37 172.01 85.4 181.77 87.05 188.61 77.11 192.4 74.28 193.6 75.89 190.07 78.52 182.69 89.23" fill="#4c5054"/><polygon points="184.98 97.48 171.33 89.05 172.38 87.35 184.42 94.78 190 86.74 195.07 85.55 195.53 87.5 191.21 88.51 184.98 97.48" fill="#4c5054"/><polygon points="191.6 120.75 186.33 115.11 182.78 102.58 170.21 90.22 171.61 88.79 184.56 101.52 188.12 114.09 193.07 119.38 191.6 120.75" fill="#4c5054"/><polygon points="163.55 86.21 152.83 78.87 151.03 70.83 152.99 70.4 154.61 77.66 164.68 84.56 163.55 86.21" fill="#4c5054"/><polygon points="152.97 89.41 145.47 78.78 141.9 76.19 143.08 74.58 146.91 77.36 153.87 87.21 163.6 85.45 163.96 87.42 152.97 89.41" fill="#4c5054"/><polygon points="150.78 97.68 144.44 88.79 140.11 87.83 140.54 85.87 145.63 87 151.31 94.98 163.25 87.4 164.32 89.09 150.78 97.68" fill="#4c5054"/><polygon points="144.43 121.03 142.95 119.68 147.83 114.33 151.25 101.72 164.04 88.84 165.46 90.24 153.04 102.75 149.63 115.32 144.43 121.03" fill="#4c5054"/><ellipse cx="167.66" cy="100.47" rx="6.85" ry="10.29" transform="translate(-0.6 1) rotate(-0.34)" fill="#edd6d6"/><circle cx="167.57" cy="86.03" r="4.15" fill="#edd6d6"/><path d="M167.69,111.76c-4.31,0-7.85-5-7.88-11.25a14.21,14.21,0,0,1,2.12-7.84,7,7,0,0,1,5.66-3.5h0c4.32,0,7.86,5,7.89,11.25a14.25,14.25,0,0,1-2.13,7.85,6.89,6.89,0,0,1-5.65,3.49Zm-.07-20.59h0a5,5,0,0,0-4,2.6,12.16,12.16,0,0,0-1.8,6.73c0,5,2.72,9.26,5.88,9.26h0a5,5,0,0,0,4-2.59,12.18,12.18,0,0,0,1.8-6.74C173.48,95.41,170.79,91.17,167.62,91.17Z" fill="#4c5054"/><path d="M167.57,91.17A5.11,5.11,0,0,1,164,89.69a5.15,5.15,0,0,1,3.59-8.81h0a5.15,5.15,0,1,1,0,10.29Zm0-8.29h0a3.09,3.09,0,0,0-2.22.93,3.15,3.15,0,0,0,0,4.46,3.06,3.06,0,0,0,2.23.9A3.14,3.14,0,0,0,170.72,86a3.14,3.14,0,0,0-3.15-3.13Z" fill="#4c5054"/><rect x="104.67" y="162.64" width="2" height="111.38" fill="#4c5054"/><rect x="167.34" y="162.64" width="2" height="111.38" fill="#4c5054"/><rect x="229.97" y="162.64" width="2" height="111.38" fill="#4c5054"/><rect x="292.61" y="162.64" width="2" height="111.38" fill="#4c5054"/><rect x="82.4" y="219.35" width="46.55" height="10.68" fill="#d0f1f7"/><rect x="145.06" y="184.35" width="46.55" height="10.68" fill="#edd6d6"/><rect x="207.69" y="237.21" width="46.55" height="10.68" fill="#fcf1e0"/><rect x="270.33" y="198.62" width="46.55" height="10.68" fill="#c4e6df"/><path d="M130,231H81.4V218.35H130ZM83.4,229H128v-8.68H83.4Z" fill="#4c5054"/><path d="M192.61,196H144.06V183.35h48.55Zm-46.55-2h44.55v-8.68H146.06Z" fill="#4c5054"/><path d="M255.24,248.89H206.69V236.21h48.55Zm-46.55-2h44.55v-8.68H208.69Z" fill="#4c5054"/><path d="M317.88,210.3H269.33V197.62h48.55Zm-46.55-2h44.55v-8.68H271.33Z" fill="#4c5054"/><rect x="99.24" y="145.87" width="12.85" height="2" fill="#4c5054"/><rect x="104.67" y="140.44" width="2" height="12.86" fill="#4c5054"/><path d="M105.67,158.7a11.83,11.83,0,1,1,11.83-11.83A11.84,11.84,0,0,1,105.67,158.7Zm0-21.65a9.83,9.83,0,1,0,9.83,9.82A9.82,9.82,0,0,0,105.67,137.05Z" fill="#4c5054"/><rect x="161.91" y="145.87" width="12.85" height="2" fill="#4c5054"/><rect x="167.34" y="140.44" width="2" height="12.86" fill="#4c5054"/><path d="M168.34,158.7a11.83,11.83,0,1,1,11.82-11.83A11.85,11.85,0,0,1,168.34,158.7Zm0-21.65a9.83,9.83,0,1,0,9.82,9.82A9.83,9.83,0,0,0,168.34,137.05Z" fill="#4c5054"/><rect x="224.54" y="145.87" width="12.85" height="2" fill="#4c5054"/><rect x="229.97" y="140.44" width="2" height="12.86" fill="#4c5054"/><path d="M231,158.7a11.83,11.83,0,1,1,11.82-11.83A11.85,11.85,0,0,1,231,158.7Zm0-21.65a9.83,9.83,0,1,0,9.82,9.82A9.83,9.83,0,0,0,231,137.05Z" fill="#4c5054"/><rect x="287.18" y="145.87" width="12.86" height="2" fill="#4c5054"/><rect x="292.61" y="140.44" width="2" height="12.86" fill="#4c5054"/><path d="M293.61,158.7a11.83,11.83,0,1,1,11.82-11.83A11.85,11.85,0,0,1,293.61,158.7Zm0-21.65a9.83,9.83,0,1,0,9.82,9.82A9.83,9.83,0,0,0,293.61,137.05Z" fill="#4c5054"/><rect x="99.24" y="288.5" width="12.85" height="2" fill="#4c5054"/><path d="M105.67,301.32A11.83,11.83,0,1,1,117.5,289.5,11.83,11.83,0,0,1,105.67,301.32Zm0-21.65a9.83,9.83,0,1,0,9.83,9.83A9.83,9.83,0,0,0,105.67,279.67Z" fill="#4c5054"/><rect x="161.91" y="288.5" width="12.85" height="2" fill="#4c5054"/><path d="M168.34,301.32a11.83,11.83,0,1,1,11.82-11.82A11.84,11.84,0,0,1,168.34,301.32Zm0-21.65a9.83,9.83,0,1,0,9.82,9.83A9.84,9.84,0,0,0,168.34,279.67Z" fill="#4c5054"/><rect x="224.54" y="288.5" width="12.85" height="2" fill="#4c5054"/><path d="M231,301.32a11.83,11.83,0,1,1,11.82-11.82A11.84,11.84,0,0,1,231,301.32Zm0-21.65a9.83,9.83,0,1,0,9.82,9.83A9.84,9.84,0,0,0,231,279.67Z" fill="#4c5054"/><rect x="287.18" y="288.5" width="12.86" height="2" fill="#4c5054"/><path d="M293.61,301.32a11.83,11.83,0,1,1,11.82-11.82A11.84,11.84,0,0,1,293.61,301.32Zm0-21.65a9.83,9.83,0,1,0,9.82,9.83A9.84,9.84,0,0,0,293.61,279.67Z" fill="#4c5054"/><path d="M349.52,322.11H49.76V48.81H349.52Zm-297.76-2H347.52V50.81H51.76Z" fill="#ebf0f2"/><circle cx="51.53" cy="321.39" r="23.46" fill="#fff"/><circle cx="348.52" cy="321.85" r="24.03" fill="#fff"/><path d="M348.76,345.86a24.47,24.47,0,1,1,24.47-24.47A24.5,24.5,0,0,1,348.76,345.86Zm0-46.94a22.47,22.47,0,1,0,22.47,22.47A22.5,22.5,0,0,0,348.76,298.92Z" fill="#ebf0f2"/><polygon points="344.92 331.33 338.6 324.38 340.07 323.03 344.81 328.24 357.4 312.38 358.97 313.62 344.92 331.33" fill="#ebf0f2"/><path d="M51.5,345.86A24.47,24.47,0,1,1,76,321.39,24.5,24.5,0,0,1,51.5,345.86Zm0-46.94A22.47,22.47,0,1,0,74,321.39,22.5,22.5,0,0,0,51.5,298.92Z" fill="#ebf0f2"/><polygon points="47.66 331.33 41.34 324.38 42.82 323.03 47.55 328.24 60.15 312.38 61.71 313.62 47.66 331.33" fill="#ebf0f2"/><path d="M149.41,336.38h2.18v11.06c0,2.93-1.28,4.95-4.29,4.95a7.51,7.51,0,0,1-2.61-.41v-2.12a6,6,0,0,0,2.25.41c1.84,0,2.48-1.1,2.48-2.68Z" fill="#ebf0f2"/><path d="M155.56,335.53a1.36,1.36,0,0,1,1.45,1.26.61.61,0,0,1,0,.19,1.45,1.45,0,1,1-2.9,0h0a1.35,1.35,0,0,1,1.26-1.45Zm-1.06,4.65h2.08v12.11H154.5Z" fill="#ebf0f2"/><path d="M159.72,340.18h2v2.13A4,4,0,0,1,166,340v2c-2.66-.28-4.28.53-4.28,3.1v7.15h-2Z" fill="#ebf0f2"/><path d="M175.8,350.1a4.28,4.28,0,0,1-4.09,2.43c-3.22,0-4.84-2.74-4.84-6.3s1.69-6.29,5.08-6.29a4,4,0,0,1,3.85,2.37v-2.13h2.09v12.1H175.8Zm-3.54.49c1.87,0,3.54-1.19,3.54-3.88v-1c0-2.69-1.52-3.88-3.3-3.88-2.35,0-3.56,1.55-3.56,4.36s1.17,4.37,3.33,4.37Z" fill="#ebf0f2"/><path d="M190.21,352.53a11.11,11.11,0,0,1-5.74-1.24v-2.23a13.47,13.47,0,0,0,5.86,1.34c2.39,0,3.3-.95,3.3-2.35s-.88-2.16-3.9-2.88c-3.58-.88-5.18-2.11-5.18-4.73,0-2.47,1.88-4.3,5.59-4.3A9.5,9.5,0,0,1,195,337.3v2.18a9.66,9.66,0,0,0-4.95-1.21c-2.09,0-3.32.72-3.32,2.17s1,2,3.82,2.67c3.37.84,5.26,1.92,5.26,4.79S194.16,352.53,190.21,352.53Z" fill="#ebf0f2"/><path d="M197.64,346.21c0-3.64,2.13-6.27,5.76-6.27s5.72,2.63,5.72,6.27-2.11,6.32-5.72,6.32S197.64,349.84,197.64,346.21Zm2,0c0,2.3,1.14,4.38,3.73,4.38s3.68-2.08,3.68-4.38-1.11-4.33-3.68-4.33-3.71,2-3.71,4.33Z" fill="#ebf0f2"/><path d="M214.42,340.18h3.12v1.92h-3.12v10.18h-2V342.1h-2v-1.92h2v-1.32a3.48,3.48,0,0,1,3.85-3.78,5.08,5.08,0,0,1,1.4.19v1.93a7.15,7.15,0,0,0-1.3-.12,1.72,1.72,0,0,0-1.93,1.84Z" fill="#ebf0f2"/><path d="M224.59,350.25a6.44,6.44,0,0,0,1.31-.17v2a5.16,5.16,0,0,1-1.41.19c-2.59,0-3.85-1.52-3.85-3.78v-6.39h-2v-1.92h2v-2.58h2v2.57h3.21v1.92h-3.21v6.36A1.7,1.7,0,0,0,224.59,350.25Z" fill="#ebf0f2"/><path d="M226.48,340.18h2.3l3.48,10.26,3.54-10.26h2l3.54,10.26,3.49-10.26h2.3l-4.46,12.1H240l-2.08-5.85-1.1-3.73-1.1,3.73-2.11,5.85h-2.67Z" fill="#ebf0f2"/><path d="M256.62,350.1a4.28,4.28,0,0,1-4.09,2.43c-3.22,0-4.84-2.74-4.84-6.3s1.69-6.29,5.08-6.29a4,4,0,0,1,3.85,2.37v-2.13h2.09v12.1h-2.09Zm-3.54.49c1.87,0,3.54-1.19,3.54-3.88v-1c0-2.69-1.52-3.88-3.3-3.88-2.34,0-3.56,1.56-3.56,4.37s1.17,4.36,3.33,4.36Z" fill="#ebf0f2"/><path d="M261.85,340.18h2v2.13a4,4,0,0,1,4.29-2.3v2c-2.66-.28-4.29.53-4.29,3.1v7.15h-2Z" fill="#ebf0f2"/><path d="M275.51,352.53c-4.53,0-6.52-2.62-6.52-6.33s2-6.27,5.72-6.27,5.23,2.59,5.23,6.27v.94H271.1c.29,2.06,1.62,3.39,4.48,3.39a10.73,10.73,0,0,0,3.68-.65v1.92A8.55,8.55,0,0,1,275.51,352.53Zm-4.43-7.16h6.75c-.13-2.25-1.14-3.53-3.22-3.53s-3.32,1.42-3.53,3.52Z" fill="#ebf0f2"/><path d="M139.26,343.74l-9-9-.87-.87h0l-6.76,6.76h0l-3.08,3.08a.82.82,0,0,0,0,1.17l6.17,6.17,3.67,3.67,6.75-6.75.1-.11,3-3A.82.82,0,0,0,139.26,343.74Zm-9.83,3.67-3.09-3.08,3.09-3.09,3.08,3.09Z" fill="#ebf0f2"/><path d="M129.43,341.24a5.18,5.18,0,0,1,0-7.31l-6.74,6.74,3.67,3.67Z" fill="#ebf0f2"/><path d="M132.52,344.32l-3.09,3.09a5.2,5.2,0,0,1,0,7.34h0l6.76-6.76Z" fill="#ebf0f2"/><path d="M149.41,18.7h2.18V29.76c0,2.93-1.28,5-4.29,5a7.76,7.76,0,0,1-2.61-.42V32.19a6.4,6.4,0,0,0,2.25.41c1.84,0,2.48-1.1,2.48-2.69Z" fill="#ebf0f2"/><path d="M155.56,17.85A1.36,1.36,0,0,1,157,19.11a.67.67,0,0,1,0,.2,1.45,1.45,0,1,1-2.9,0h0a1.36,1.36,0,0,1,1.26-1.46ZM154.5,22.5h2.08V34.61H154.5Z" fill="#ebf0f2"/><path d="M159.72,22.5h2v2.13a4,4,0,0,1,4.28-2.3v2c-2.66-.27-4.28.54-4.28,3.1v7.16h-2Z" fill="#ebf0f2"/><path d="M175.8,32.43a4.27,4.27,0,0,1-4.09,2.42c-3.22,0-4.84-2.74-4.84-6.3s1.69-6.29,5.08-6.29a4,4,0,0,1,3.85,2.37V22.5h2.09V34.61H175.8Zm-3.54.48c1.87,0,3.54-1.18,3.54-3.87v-1c0-2.69-1.52-3.88-3.3-3.88-2.35,0-3.56,1.55-3.56,4.36s1.17,4.37,3.33,4.37Z" fill="#ebf0f2"/><path d="M190.21,34.85a11.11,11.11,0,0,1-5.74-1.24V31.39a13.61,13.61,0,0,0,5.86,1.33c2.39,0,3.3-.94,3.3-2.35s-.88-2.15-3.9-2.88c-3.58-.87-5.18-2.11-5.18-4.72s1.88-4.31,5.59-4.31A9.5,9.5,0,0,1,195,19.62V21.8a9.76,9.76,0,0,0-4.95-1.21c-2.09,0-3.32.72-3.32,2.18,0,1.3,1,2,3.82,2.66,3.37.85,5.26,1.93,5.26,4.79S194.16,34.85,190.21,34.85Z" fill="#ebf0f2"/><path d="M197.64,28.53c0-3.63,2.13-6.27,5.76-6.27s5.72,2.64,5.72,6.27-2.11,6.33-5.72,6.33S197.64,32.16,197.64,28.53Zm2,0c0,2.3,1.14,4.38,3.73,4.38s3.68-2.08,3.68-4.38-1.11-4.32-3.68-4.32-3.71,2-3.71,4.32Z" fill="#ebf0f2"/><path d="M214.42,22.5h3.12v1.93h-3.12V34.61h-2V24.43h-2V22.5h2V21.18a3.48,3.48,0,0,1,3.85-3.78,5.08,5.08,0,0,1,1.4.19v1.93a7.15,7.15,0,0,0-1.3-.12,1.72,1.72,0,0,0-1.93,1.84Z" fill="#ebf0f2"/><path d="M224.59,32.57a6.44,6.44,0,0,0,1.31-.17v2a4.8,4.8,0,0,1-1.41.19c-2.59,0-3.85-1.52-3.85-3.77V24.44h-2V22.51h2V19.93h2V22.5h3.21v1.93h-3.21v6.35A1.7,1.7,0,0,0,224.59,32.57Z" fill="#ebf0f2"/><path d="M226.48,22.5h2.3l3.48,10.27L235.8,22.5h2l3.54,10.27,3.49-10.27h2.3l-4.46,12.11H240l-2.08-5.86L236.81,25l-1.1,3.73-2.11,5.86h-2.67Z" fill="#ebf0f2"/><path d="M256.62,32.43a4.27,4.27,0,0,1-4.09,2.42c-3.22,0-4.84-2.74-4.84-6.3s1.69-6.29,5.08-6.29a4,4,0,0,1,3.85,2.37V22.5h2.09V34.61h-2.09Zm-3.54.48c1.87,0,3.54-1.18,3.54-3.87v-1c0-2.69-1.52-3.88-3.3-3.88-2.34,0-3.56,1.56-3.56,4.37s1.17,4.36,3.33,4.36Z" fill="#ebf0f2"/><path d="M261.85,22.5h2v2.13a4,4,0,0,1,4.29-2.3v2c-2.66-.27-4.29.54-4.29,3.1v7.16h-2Z" fill="#ebf0f2"/><path d="M275.51,34.85c-4.53,0-6.52-2.61-6.52-6.33s2-6.27,5.72-6.27,5.23,2.59,5.23,6.27v.94H271.1c.29,2.06,1.62,3.39,4.48,3.39a10.73,10.73,0,0,0,3.68-.65v1.93A8.69,8.69,0,0,1,275.51,34.85Zm-4.43-7.15h6.75c-.13-2.26-1.14-3.54-3.22-3.54s-3.32,1.42-3.53,3.52Z" fill="#ebf0f2"/><path d="M139.26,26.07l-9-9-.87-.87h0L122.67,23h0l-3.08,3.09a.8.8,0,0,0,0,1.16l6.17,6.17,3.67,3.67,6.75-6.75.1-.1,3-3A.8.8,0,0,0,139.26,26.07Zm-9.83,3.66-3.09-3.08,3.09-3.08,3.08,3.08Z" fill="#ebf0f2"/><path d="M129.43,23.57a5.2,5.2,0,0,1,0-7.32L122.66,23l3.67,3.67Z" fill="#ebf0f2"/><path d="M132.52,26.64l-3.09,3.09a5.2,5.2,0,0,1,0,7.34h0l6.76-6.76Z" fill="#ebf0f2"/><circle cx="28.94" cy="343.85" r="12.52" fill="#fff"/><path d="M28.94,357.37a13.52,13.52,0,1,1,13.52-13.52A13.53,13.53,0,0,1,28.94,357.37Zm0-25a11.52,11.52,0,1,0,11.52,11.52A11.54,11.54,0,0,0,28.94,332.33Z" fill="#ebf0f2"/><text transform="translate(24.5 351.05)" font-size="21.85" fill="#ebf0f2" font-family="MyriadPro-Regular, Myriad Pro">?</text><circle cx="51.53" cy="49.66" r="23.28" fill="#fff"/><path d="M51.5,74.13A24.47,24.47,0,1,1,76,49.66,24.49,24.49,0,0,1,51.5,74.13Zm0-46.94A22.47,22.47,0,1,0,74,49.66,22.5,22.5,0,0,0,51.5,27.19Z" fill="#ebf0f2"/><polygon points="47.66 59.6 41.34 52.65 42.82 51.3 47.55 56.51 60.15 40.65 61.71 41.89 47.66 59.6" fill="#ebf0f2"/><circle cx="28.94" cy="27.13" r="12.52" fill="#fff"/><path d="M28.94,40.65A13.53,13.53,0,1,1,42.46,27.13,13.54,13.54,0,0,1,28.94,40.65Zm0-25A11.53,11.53,0,1,0,40.46,27.13,11.54,11.54,0,0,0,28.94,15.6Z" fill="#ebf0f2"/><text transform="translate(24.5 34.33)" font-size="21.85" fill="#ebf0f2" font-family="MyriadPro-Regular, Myriad Pro">?</text><circle cx="371.34" cy="343.85" r="12.52" fill="#fff"/><path d="M371.34,357.37a13.52,13.52,0,1,1,13.52-13.52A13.54,13.54,0,0,1,371.34,357.37Zm0-25a11.52,11.52,0,1,0,11.52,11.52A11.54,11.54,0,0,0,371.34,332.33Z" fill="#ebf0f2"/><text transform="translate(366.91 351.05)" font-size="21.85" fill="#ebf0f2" font-family="MyriadPro-Regular, Myriad Pro">?</text><circle cx="348.78" cy="49.8" r="24.03" fill="#fff"/><path d="M348.76,74.13a24.47,24.47,0,1,1,24.47-24.47A24.49,24.49,0,0,1,348.76,74.13Zm0-46.94a22.47,22.47,0,1,0,22.47,22.47A22.5,22.5,0,0,0,348.76,27.19Z" fill="#ebf0f2"/><polygon points="344.92 59.6 338.6 52.65 340.07 51.3 344.81 56.51 357.4 40.65 358.97 41.89 344.92 59.6" fill="#ebf0f2"/><circle cx="371.34" cy="27.13" r="12.52" fill="#fff"/><path d="M371.34,40.65a13.53,13.53,0,1,1,13.52-13.52A13.54,13.54,0,0,1,371.34,40.65Zm0-25a11.53,11.53,0,1,0,11.52,11.53A11.54,11.54,0,0,0,371.34,15.6Z" fill="#ebf0f2"/><text transform="translate(366.91 34.33)" font-size="21.85" fill="#ebf0f2" font-family="MyriadPro-Regular, Myriad Pro">?</text></svg>