<?xml version="1.0" encoding="UTF-8"?><svg id="a" xmlns="http://www.w3.org/2000/svg" xmlns:xlink="http://www.w3.org/1999/xlink" viewBox="0 0 505.3269 237.0294"><defs><style>.c{fill:none;}.d{fill:#000023;}.e{fill:#fff;}.f{fill:#5b4fff;}.g{clip-path:url(#b);}</style><clipPath id="b"><rect class="c" width="505.3269" height="236.8062"/></clipPath></defs><path class="f" d="M247.5839,15.8804s-2.804-.1511-4.2026-.1245c-1.3987-.0266-4.2029.1245-4.2029.1245C123.4481,20.2985,30.9784,115.4963,30.9784,232.308v4.7214h424.8055v-4.7214c0-116.8117-92.4698-212.0095-208.2001-216.4276Z"/><g class="g"><path class="d" d="M245.4564,258.3513c-12.4756,0-22.626-10.1504-22.626-22.626s10.1504-22.627,22.626-22.627,22.626,10.1504,22.626,22.627-10.1504,22.626-22.626,22.626ZM245.4564,215.0983c-11.373,0-20.626,9.2529-20.626,20.627s9.2529,20.626,20.626,20.626,20.626-9.2529,20.626-20.626-9.2529-20.627-20.626-20.627Z"/><path class="d" d="M248.141,297.3962c-31.4844,0-57.0996-26.0381-57.0996-58.043s25.6152-58.043,57.0996-58.043,57.1006,26.0381,57.1006,58.043-25.6152,58.043-57.1006,58.043ZM248.141,183.3103c-30.3818,0-55.0996,25.1406-55.0996,56.043s24.7178,56.043,55.0996,56.043,55.1006-25.1406,55.1006-56.043-24.7178-56.043-55.1006-56.043Z"/><path class="d" d="M248.0433,321.9294c-48.96,0-88.791-37.8408-88.791-84.3525s39.8311-84.3516,88.791-84.3516,88.791,37.8398,88.791,84.3516-39.8311,84.3525-88.791,84.3525ZM248.0433,155.2253c-47.8564,0-86.791,36.9424-86.791,82.3516s38.9346,82.3525,86.791,82.3525,86.791-36.9434,86.791-82.3525-38.9346-82.3516-86.791-82.3516Z"/><path class="d" d="M244.3568,353.7175c-65.668,0-119.0928-52.5293-119.0928-117.0957s53.4248-117.0967,119.0928-117.0967,119.0928,52.5293,119.0928,117.0967-53.4248,117.0957-119.0928,117.0957ZM244.3568,121.5251c-64.5654,0-117.0928,51.6318-117.0928,115.0967s52.5273,115.0957,117.0928,115.0957,117.0928-51.6318,117.0928-115.0957-52.5273-115.0967-117.0928-115.0967Z"/><path class="d" d="M247.1058,385.5271c-79.0596,0-145.8174-61.2441-151.0928-140.8691-5.498-83.0156,57.8984-155.0488,141.3213-160.5752,83.4033-5.5098,155.7666,57.5166,161.2666,140.5312h0c5.498,83.0166-57.8984,155.0498-141.3213,160.5762-3.4062.2256-6.8076.3369-10.1738.3369ZM247.5062,85.7458c-3.3262,0-6.6729.1094-10.0391.333-82.3232,5.4521-144.8838,76.5312-139.458,158.4463s76.8291,144.1299,159.1377,138.6689c82.3232-5.4521,144.8838-76.5322,139.458-158.4473-5.2041-78.5654-71.0879-139.001-149.0986-139.001Z"/><path class="d" d="M249.3304,417.2956c-102.2539,0-185.4443-80.9619-185.4443-180.4785S147.0765,56.3376,249.3304,56.3376s185.4443,80.9629,185.4443,180.4795-83.1904,180.4785-185.4443,180.4785ZM249.3304,58.3376c-101.1514,0-183.4443,80.0654-183.4443,178.4795s82.293,178.4785,183.4443,178.4785,183.4443-80.0654,183.4443-178.4785S350.4818,58.3376,249.3304,58.3376Z"/><path class="d" d="M247.1263,449.0847c-118.5674,0-215.0293-94.9434-215.0293-211.6436S128.559,25.7976,247.1263,25.7976s215.0303,94.9434,215.0303,211.6436-96.4619,211.6436-215.0303,211.6436ZM247.1263,27.7976c-117.4648,0-213.0293,94.0459-213.0293,209.6436s95.5645,209.6436,213.0293,209.6436,213.0303-94.0459,213.0303-209.6436S364.5912,27.7976,247.1263,27.7976Z"/><circle class="f" cx="248.9981" cy="237.0295" r="8.1659"/></g><circle class="e" cx="135.1433" cy="95.7071" r="19.4294"/><path class="d" d="M135.1429,101.0261c-.5527,0-1-.4473-1-1v-14.1748c0-.5527.4473-1,1-1s1,.4473,1,1v14.1748c0,.5527-.4473,1-1,1Z"/><circle class="d" cx="135.1433" cy="106.0329" r="1.6671"/><circle class="e" cx="171.6515" cy="187.6797" r="19.4294"/><path class="d" d="M171.6517,192.9987c-.5527,0-1-.4473-1-1v-14.1758c0-.5527.4473-1,1-1s1,.4473,1,1v14.1758c0,.5527-.4473,1-1,1Z"/><circle class="d" cx="171.6515" cy="198.0054" r="1.6671"/><circle class="e" cx="349.2779" cy="139.9382" r="19.4294"/><path class="d" d="M349.2777,145.2566c-.5527,0-1-.4473-1-1v-14.1748c0-.5527.4473-1,1-1s1,.4473,1,1v14.1748c0,.5527-.4473,1-1,1Z"/><circle class="d" cx="349.2779" cy="150.264" r="1.6671"/></svg>