<?xml version="1.0" encoding="UTF-8" standalone="no"?><svg width="78" height="25" viewBox="0 0 78 25" fill="none" xmlns="http://www.w3.org/2000/svg">
<path d="M71.4188 15.9613L77.9147 8.66094H70.3097L67.665 11.6834L64.9228 8.66094H50.4563V6.71094H57.2934V0.848755H38.8659V10.0503H38.805C37.635 8.70969 36.1847 8.24657 34.4906 8.24657C31.0294 8.24657 28.4213 10.6109 27.5072 13.7188C25.3134 6.47938 15.6366 6.69876 12.6506 12.0125V9.06313H5.97188V5.87H13.2844V0.860943H0V23.3347H5.97188V13.8894H11.9316C11.7488 14.5841 11.6513 15.3275 11.6513 16.1075C11.6513 25.0166 24.1556 27.2469 27.5194 18.9959H22.4006C20.6091 21.5431 16.8188 20.0806 16.8188 17.2166H27.2391C27.69 20.9338 30.5784 24.1513 34.5638 24.1513C36.2822 24.1513 37.8544 23.3103 38.8172 21.8844H38.8781V23.3347H64.74L67.4334 20.2878L70.1512 23.3347H78L71.4188 15.9613ZM16.9772 13.9381C17.7206 10.7328 22.0594 10.8181 22.6444 13.9381H16.9772ZM35.6728 19.8978C31.4559 19.8978 31.5291 12.2441 35.6728 12.2441C39.6459 12.2441 39.8775 19.8978 35.6728 19.8978ZM56.1234 22.2256H44.6184V1.93344H56.1966V5.61407H49.3594V9.74563H56.1234V13.1703H49.2863V18.6181H56.1234V22.2256ZM50.5294 17.375V14.4013H57.3666V9.03876L63.5456 15.9856L57.3666 22.9325V17.375H50.5294ZM67.4213 18.6303L64.2403 22.2256H59.5969L65.1544 15.9856L59.5969 9.74563H64.4353L67.6772 13.3166L70.7972 9.74563H75.4894L69.9563 15.9613L75.5625 22.2256H70.6266L67.4213 18.6303Z" fill="#A0A0A1"/>
</svg>
