<?xml version="1.0" encoding="UTF-8"?>
<svg id="Layer_1" xmlns="http://www.w3.org/2000/svg" version="1.1" viewBox="0 0 106 24">
  <!-- Generator: Adobe Illustrator 29.1.0, SVG Export Plug-In . SVG Version: 2.1.0 Build 142)  -->
  <defs>
    <style>
      .st0 {
        fill: #000023;
      }
    </style>
  </defs>
  <path class="st0" d="M37.5,13.7l-.6,1.8h0c-.1-.4-.3-1-.6-1.7l-3.4-8.4h-3.3v13.4h2.2v-10.1c0-.4,0-.6,0-.9h0c.1.5.2.9.3,1.1l4,9.8h1.5l4-9.9c0-.2.2-.7.3-1.1h0v2.4c-.1,0-.1,8.5-.1,8.5h2.3V5.2h-3.2l-3.4,8.4ZM46.3,9h2.3v9.6h-2.3v-9.6ZM47.4,5c-.4,0-.7.1-1,.4-.3.2-.4.6-.4.9,0,.2,0,.3.1.5,0,.2.2.3.3.4.3.2.6.4,1,.4s.7-.1,1-.4c.1-.1.2-.3.3-.4,0-.2.1-.3.1-.5,0-.4-.1-.7-.4-.9-.2-.2-.6-.4-1-.4ZM56.5,8.9c-.4,0-.9-.1-1.3-.1-1,0-2,.2-2.7.7-.8.5-1.4,1.1-1.8,1.9-.4.8-.6,1.7-.6,2.8s.2,1.7.6,2.5c.4.7,1,1.3,1.7,1.7.7.4,1.5.6,2.5.6s2-.2,2.7-.6h0v-2.1h0c-.3.3-.7.5-1.1.6-.4.1-.8.2-1.1.2-.9,0-1.6-.3-2.1-.8-.5-.6-.8-1.3-.8-2.3s.3-1.8.8-2.3c.5-.6,1.3-.9,2.1-.9s1.5.2,2.2.7h0c0,0,0-2.1,0-2.1h0c-.3-.1-.6-.3-1.1-.4ZM64,8.9c-.6,0-1.1.2-1.5.5-.4.3-.6.8-.9,1.3h0v-1.7h-2.3v9.6h2.3v-4.9c0-.8.2-1.5.6-2,.4-.5.9-.8,1.5-.8s.4,0,.7,0c.2,0,.4.1.5.2h0c0,0,0-2.2,0-2.2h0c-.2-.1-.5-.2-.9-.2ZM70.2,8.8c-1.6,0-2.9.5-3.7,1.4-.9.9-1.3,2.2-1.3,3.8s.5,2.7,1.3,3.6c.9.9,2.1,1.3,3.5,1.3s2.8-.5,3.7-1.4c.9-.9,1.3-2.2,1.3-3.7s-.4-2.7-1.3-3.6c-.8-.9-2-1.3-3.5-1.3ZM72,16.2c-.4.5-1.1.8-1.9.8s-1.5-.3-1.9-.8c-.5-.5-.7-1.3-.7-2.3s.2-1.8.7-2.4c.5-.6,1.1-.8,1.9-.8s1.4.3,1.9.8c.5.5.7,1.3.7,2.3,0,1-.2,1.9-.7,2.4ZM80,13c-.7-.3-1.2-.5-1.4-.7-.2-.2-.3-.4-.3-.7s.1-.5.4-.7c.3-.2.6-.3,1-.3s.8,0,1.2.2c.4.1.7.3,1,.5h0c0,0,0-2.1,0-2.1h0c-.3-.1-.6-.2-1-.3-.4,0-.8-.1-1.1-.1-1.1,0-2,.3-2.7.8-.7.5-1,1.3-1,2.1s0,.9.2,1.2c.2.3.4.6.7.9.3.2.8.5,1.4.8.5.2.9.4,1.2.5.2.1.4.3.5.4,0,.1.1.3.1.5,0,.6-.5,1-1.5,1s-.8,0-1.3-.2c-.5-.2-.9-.4-1.3-.6h0c0,0,0,2.1,0,2.1h0c.3.2.7.3,1.2.4.5,0,.9.2,1.3.2,1.2,0,2.1-.3,2.8-.8.7-.6,1.1-1.3,1.1-2.2s-.2-1.2-.6-1.7c-.5-.4-1.1-.9-2-1.2ZM88.5,8.8c-1.6,0-2.9.5-3.7,1.4-.9.9-1.3,2.2-1.3,3.8s.5,2.7,1.3,3.6c.9.9,2.1,1.3,3.5,1.3s2.8-.5,3.7-1.4c.9-.9,1.3-2.2,1.3-3.7s-.4-2.7-1.3-3.6c-.8-.9-2-1.3-3.5-1.3ZM90.3,16.2c-.4.5-1.1.8-1.9.8s-1.5-.3-1.9-.8c-.5-.5-.7-1.3-.7-2.3s.2-1.8.7-2.4c.5-.6,1.1-.8,1.9-.8s1.4.3,1.9.8c.5.5.7,1.3.7,2.3s-.2,1.9-.7,2.4ZM105.4,10.9v-1.9h-2.3v-2.9h0s-2.2.7-2.2.7h0v2.2h-3.4v-1.2c0-.6.1-1,.4-1.3.2-.3.6-.4,1.1-.4s.6,0,1,.2h0c0,0,0-1.9,0-1.9h0c-.3-.1-.7-.2-1.3-.2s-1.3.2-1.8.4c-.5.3-.9.7-1.2,1.2-.3.5-.5,1.1-.5,1.8v1.3h-1.6v1.8h1.6v7.8h2.3v-7.8h3.4v5c0,2,1,3.1,2.9,3.1s.6,0,1-.1c.3,0,.6-.2.7-.2h0v-1.9h0c-.1.2-.3.2-.5.3-.2,0-.3,0-.5,0-.5,0-.8-.1-1-.4-.2-.2-.3-.6-.3-1.2v-4.6h2.3Z"/>
  <path class="st0" d="M.4.8h10.7v10.7H.4V.8Z"/>
  <path class="st0" d="M12.2.8h10.7v10.7h-10.7V.8Z"/>
  <path class="st0" d="M.4,12.5h10.7v10.7H.4v-10.7Z"/>
  <path class="st0" d="M12.2,12.5h10.7v10.7h-10.7v-10.7Z"/>
</svg>