<?xml version="1.0" encoding="UTF-8" standalone="no"?><svg width="92" height="27" viewBox="0 0 92 27" fill="none" xmlns="http://www.w3.org/2000/svg">
<path fill-rule="evenodd" clip-rule="evenodd" d="M48.951 25.7688H61.5751C63.4614 25.7688 65.0095 24.9898 66.2669 23.4311C67.4761 21.9219 68.105 20.1207 68.105 18.0765C68.105 13.938 62.833 11.0167 60.8006 11.0167H53.8842C53.3521 11.0167 52.9159 10.7732 52.5781 10.3841C52.2393 9.94558 52.046 9.45902 52.046 8.87446C52.046 8.19288 52.2393 7.60881 52.5781 7.12176C52.9651 6.6352 53.4485 6.34317 54.0293 6.34317H66.9922V1.13309H53.7868C51.4166 1.13309 49.578 1.86367 48.2719 3.27534C47.1118 4.58998 46.5306 6.34268 46.5306 8.43641C46.5306 10.4811 47.1118 12.2828 48.2719 13.7425C49.578 15.3492 51.1265 16.1778 53.0128 16.1778H60.9944C61.4773 16.1778 61.8647 16.3238 62.1544 16.7123C62.4932 17.1019 62.6383 17.5889 62.6383 18.125C62.6383 18.7581 62.3963 19.3421 62.0093 19.8292C61.5741 20.2672 61.0902 20.5108 60.4623 20.5108H47.6926L47.4993 20.1697L42.7107 4.68749L42.4688 4.20044C41.3077 1.81467 39.3732 0.64654 36.7129 0.64654C35.2617 0.64654 33.9556 0.987078 32.7946 1.71766C31.5854 2.44774 30.8114 3.51886 30.3762 4.88251L23.9427 25.7198L29.7955 25.7693L35.6964 7.21977C35.8415 6.63521 36.1803 6.34317 36.6155 6.34317C36.8574 6.34317 37.0507 6.44019 37.1958 6.5867C37.3408 6.78122 37.4377 6.97624 37.4859 7.21977L43.435 25.7693L48.951 25.7688ZM5.41758 8.72844V25.7198H0V6.87824C0 4.44396 0.580753 2.73977 1.83815 1.71766C2.80542 0.987078 4.25656 0.597534 6.28797 0.597534C7.93237 0.597534 9.33533 1.08459 10.5927 2.00969C11.8501 2.93479 12.6723 4.20044 13.108 5.75861L16.6388 18.271L17.2195 19.9752C17.2677 20.3157 17.4615 20.5593 17.6547 20.7533C17.8966 20.9488 18.1381 21.0463 18.4287 20.9488C18.9126 20.9003 19.1545 20.6078 19.1545 20.1697V1.1821H24.7172V19.9262C24.7172 22.0199 24.2338 23.5786 23.2178 24.6982C22.2506 25.8179 20.7994 26.4024 18.8644 26.4024C17.1713 26.4024 15.7684 26.0614 14.656 25.4773C13.3018 24.7957 12.4309 23.7246 12.0439 22.312L7.98106 8.04687L7.69093 7.12176C7.59405 6.78122 7.4008 6.5377 7.15886 6.29417C6.91692 6.09915 6.62679 6.05064 6.33665 6.09915C6.04652 6.14815 5.85327 6.29417 5.65952 6.58621C5.50049 6.85034 5.41678 7.15345 5.41758 7.4623V8.72844ZM92 25.7688L85.712 4.68749L85.4701 4.20044C84.3091 1.81467 82.3745 0.64654 79.7142 0.64654C78.263 0.64654 76.957 0.987078 75.7964 1.71766C74.5862 2.44774 73.8132 3.51886 73.377 4.88251L66.944 25.7198L72.7968 25.7693L78.6977 7.21977C78.8428 6.63521 79.1816 6.34317 79.6168 6.34317C79.8588 6.34317 80.052 6.44019 80.1971 6.5867C80.3431 6.78122 80.439 6.97624 80.4882 7.21977L86.4374 25.7693L92 25.7688Z" fill="#A0A0A1"/>
</svg>
