<?xml version="1.0" encoding="UTF-8"?>
<svg id="Layer_1" xmlns="http://www.w3.org/2000/svg" version="1.1" viewBox="0 0 2390.6 500">
  <!-- Generator: Adobe Illustrator 29.1.0, SVG Export Plug-In . SVG Version: 2.1.0 Build 142)  -->
  <defs>
    <style>
      .st0 {
        fill: #FFFFFF;
      }
    </style>
  </defs>
  <path class="st0" d="M723.5,151.5c-58.8,0-74.9,50.9-74.9,104.2s16.8,103.7,74.9,103.7,74.1-49.7,74.1-103.7-16.1-104.2-74.1-104.2ZM723.5,400.8c-84.3,0-122.5-64.3-122.5-145.1s39.2-145.8,122.7-145.8,122.3,64.2,122.3,145.8-36.9,145.1-122.3,145.1h-.2ZM881.4,195.7c0-1.9,1.4-3.4,3.2-3.5h37.1c1.9-.2,3.6,1.1,3.9,3v124.3c0,29.8,11,42.8,35.7,42.8s49-29.8,49-58.1v-107.7c0-2.1,1.5-3.9,3.6-4h36.8c2.3,0,3.5,1.2,3.5,4v194.4c.2,2-1.2,3.7-3.1,4h-21.9c-2,.1-3.8-1-4.7-2.8-4-8.6-8.3-17.6-12.2-26.3-13.2,21.8-37.1,35-62.6,34.5-45.4,0-69-26.3-69-73.7l.7-130.9ZM1081.5,227.8c-2,.2-3.7-1.3-3.9-3.3v-28.4c-.2-2,1.3-3.7,3.3-3.9h31.5v-36.5c0-2,1-3.8,2.8-4.7l37.3-17.7c2.7-1.5,4.7,0,4.7,2.8v56.1h47.4c1.9-.2,3.6,1.1,3.9,3v28.8c.3,1.8-1,3.6-2.8,3.9-.4.1-.7.1-1.1,0h-47.8v104.3c0,19.2,7.9,28.2,25.1,28.2,8-.1,16-.8,24-2,1.9-.4,3.7.7,4.2,2.6,0,.2,0,.4,0,.6l2.8,27.4c.4,1.9-.7,3.7-2.6,4.2-.2,0-.4.1-.6.1-12,3.4-24.3,5.2-36.8,5.1-42.8,0-60.8-23.1-60.8-65.8v-104.8h-30.7ZM1331.6,224c-36.9,0-51.8,29.8-51.8,66.6s14.5,72.9,51.4,72.9,49.7-28.5,49.7-69.6-16-69.6-49.7-69.6l.4-.3ZM1426.8,293c0,60.8-29.8,107.4-87.5,107.4-22.7,1.2-44.5-8.6-58.8-26.3v93.7c0,2.4-1.2,3.6-3.9,3.6h-36.5c-2.3,0-3.5-1.2-3.5-4V195.7c0-2,1.4-3.8,3.5-3.9h24.8c2-.2,3.8,1.1,4.3,3.1l9.9,23.6c13.9-20.7,37.4-32.9,62.4-32.1,57.7,0,85.4,46.9,85.3,106.6h0ZM1547.8,224c-38,0-51.3,32.5-51.3,69s12.5,69.6,51.3,69.6,51.7-33.3,51.7-69.6-12.9-69-51.7-69ZM1547.8,400.4c-63.5,0-96.9-43.6-96.9-107s35.7-107,97.3-107,96.9,44.3,96.9,106.6-34.9,107.4-97.3,107.4ZM1755.2,400.4c-45.1,0-85.9-19.9-89.5-65.1-.4-1.7.7-3.4,2.4-3.8.4-.1.7-.1,1.1-.1h35.3c2-.2,3.8,1.3,4,3.4v.2c3.9,21.9,22,30.5,47,30.5s42.4-8.3,42.4-27-23.2-24.4-53.4-29.8c-43.5-3.9-73.7-23.1-73.7-59.7s36.9-63,83.1-63,80.3,25.5,83.5,60.8c.3,1.8-.8,3.5-2.6,3.8-.3.1-.6.1-1,0h-34.1c-2.3,0-3.5-1.2-4.3-3.6-3.6-17.2-16.9-27.3-40.8-27.3s-41.2,9.9-41.2,25.5,9.9,21.2,38,25.5c60.8,9.9,89.5,20.4,89.5,65s-34.5,63.9-85.4,63.9l-.3.8ZM1858,227.8c-2,.2-3.7-1.3-3.9-3.3v-28.4c-.2-2,1.3-3.7,3.3-3.9h31.6v-36.5c0-2,.9-3.8,2.7-4.7l37.3-17.7c2.7-1.5,4.7,0,4.7,2.8v56.1h47.4c1.9-.2,3.6,1.1,3.9,3v28.8c.2,1.9-1.1,3.6-3,3.9h-48.4v104.3c0,19.2,7.9,28.2,25.1,28.2,8-.1,16-.8,24-2,1.9-.4,3.7.7,4.2,2.6,0,.2,0,.4,0,.6l2.8,27.4c.4,1.9-.7,3.7-2.6,4.2-.2,0-.4.1-.6.1-12,3.4-24.4,5.2-36.9,5.1-42.7,0-60.8-23.1-60.8-65.8v-104.8h-30.9Z"/>
  <path class="st0" d="M2018.3,395.3c-2.3,0-3.5-1.6-3.5-4v-19.2c0-1.7.7-3.4,1.9-4.7,14.9-14.9,76.1-81.9,86.7-91.8,30.9-28.2,47.4-54.1,47.4-82.6s-19.9-49.7-51-49.7-52.1,17.2-57.6,47.8c0,2-1.8,3.6-3.9,3.5h-20c-2.7,0-4.3-1.5-3.9-4.3,6.3-39.8,32.1-73.3,86.2-73.3s80.3,29.3,80.3,74.1-18,67-55.2,100.3c-7.5,6.7-65.1,70.2-73,76.9h127.8c1.9-.3,3.7,1,4,2.9,0,.3.1.6,0,1v18.4c.1,2.1-1.5,3.9-3.6,4h-162.3l-.3.7ZM2322.9,165.5l-98,136.5h98v-136.5ZM2194.7,306.3c-.1-1.8.5-3.6,1.6-5.1l125-174.1c1.1-1.6,2.9-2.5,4.8-2.3h23.1c2.4,0,3.6,1.1,3.6,3.9v173.3h29.8c1.9-.3,3.7,1,4,2.9,0,.3.1.6,0,1v15.2c.2,2-1.2,3.7-3.1,4h-31.5v66.2c0,2.4-1.2,3.6-4,3.6h-21.5c-2.1.1-3.9-1.5-4-3.6v-66.6h-124c-2,.1-3.8-1.4-3.9-3.5v-14.9h0ZM252.9,114.6c-74.9,0-135.5,60.7-135.5,135.6s60.7,135.5,135.6,135.5,135.5-60.7,135.5-135.6-8.1-53.4-23.2-75.8c-25.2-37.4-67.3-59.7-112.4-59.7h0ZM252.9,401.5c-83.6-.1-151.3-67.9-151.3-151.4S169.5,98.7,253.1,98.8c83.5,0,151.2,67.7,151.3,151.3-.1,83.5-67.9,151.3-151.5,151.4Z"/>
  <path class="st0" d="M252.9,28.4c-122.4-.1-221.7,99.1-221.8,221.5s99,221.8,221.4,221.9c122.4,0,221.7-99.1,221.8-221.5,0-44.2-13.1-87.4-37.8-124-41.1-61.1-109.9-97.8-183.6-97.9h0ZM252.9,487.5c-131.1-.1-237.3-106.4-237.3-237.5S122,12.7,253.1,12.7c131,.1,237.2,106.3,237.3,237.3-.2,131.1-106.4,237.3-237.5,237.5Z"/>
  <g>
    <path class="st0" d="M252.9,498.6c-137.3.2-248.7-111-248.9-248.3C3.8,130.6,89,27.8,206.7,5.7c15.3-2.8,30.7-4.3,46.2-4.3,32.4-.1,64.5,6.3,94.5,18.7l-14.9,35.3c-25.2-10.4-52.3-15.7-79.6-15.7s-26.3,1.2-39.2,3.6C99.5,64.7,24.2,174.8,45.7,289s131.5,189.5,245.8,168c114.3-21.5,189.5-131.5,168-245.8-5.3-28.1-16.2-54.8-32.2-78.5l31.7-22c76.9,113.8,47,268.3-66.7,345.2-41.1,27.9-89.7,42.7-139.4,42.7h0Z"/>
    <path class="st0" d="M252.9,412.6c-89.8-.4-162.3-73.4-161.9-163.2.3-77.8,55.7-144.5,132.1-159.1,9.8-1.9,19.8-2.8,29.8-2.8,21.2,0,42.2,4.1,61.8,12.1l-14.5,35.4c-63.6-26-136.3,4.4-162.4,68.1s4.4,136.3,68.1,162.4c63.6,26,136.3-4.4,162.4-68.1,15.8-38.6,11.2-82.5-12.2-117l31.7-21.4c50.3,74.4,30.7,175.5-43.8,225.7-26.9,18.2-58.6,27.9-91.1,27.9h0Z"/>
    <path class="st0" d="M252.9,269.9c-11,0-19.9-8.9-19.9-19.9s8.9-19.9,19.9-19.9,19.9,8.9,19.9,19.9-8.9,19.9-19.9,19.9ZM252.9,176.8c-40.6,0-73.5,32.9-73.5,73.5s32.9,73.5,73.5,73.5,73.5-32.9,73.5-73.5v-.3c.1-40.5-32.7-73.3-73.2-73.4h-.3v.2Z"/>
  </g>
</svg>