<?xml version="1.0" encoding="UTF-8"?><svg id="a" xmlns="http://www.w3.org/2000/svg" viewBox="0 0 343.08 327.2684"><defs><style>.b{fill:none;}.c,.d{isolation:isolate;}.c,.e{fill:#000023;}.d{fill:#333332;opacity:.4;}.f{fill:#fff;}.g{fill:#5b4fff;}.h{fill:#1a9fff;}</style></defs><path class="e" d="M11.8796,266.793c-.7354,0-1.4316-.1816-2.0625-.5449-1.6543-.9561-2.6035-3.0557-2.6035-5.7627L.0017,127.7896c-.002-4.8311,2.9434-10.417,6.5625-12.5063L202.0622.8584c1.7773-1.0269,3.54-1.1382,4.9658-.314,1.6543.9551,2.6035,3.0552,2.6035,5.7612l4.46,133.353c.001,4.8086-2.9414,10.3921-6.5586,12.4834L14.7858,265.9317c-.9932.5732-1.9805.8613-2.9062.8613ZM204.9577,1.9971c-.6885,0-1.3672.2881-1.8906.5903L7.569,117.0118c-3.0215,1.7441-5.5693,6.6538-5.5693,10.7236l7.2119,132.6953c.002,2.0273.5859,3.4971,1.6055,4.085,1.0029.5791,2.1641.1504,2.9609-.3115l192.751-113.7915c3.0156-1.7412,5.5635-6.6504,5.5635-10.7207l-4.46-133.353c-.001-2.0059-.585-3.4746-1.6045-4.063-.3447-.1992-.709-.2788-1.0703-.2788Z"/><rect class="e" x="-13.778" y="81.8888" width="237.4421" height="1.9997" transform="translate(-26.8704 60.3322) rotate(-28.5926)"/><path class="e" d="M13.9575,123.2604c0,1.715-1.2116,3.8048-2.7061,4.6677s-2.7061.1721-2.7061-1.5429c0-1.715,1.2116-3.8048,2.7061-4.6677,1.4946-.8629,2.7061-.1721,2.7061,1.5429Z"/><path class="e" d="M22.5262,118.3133c0,1.715-1.2116,3.8048-2.7061,4.6677s-2.7061.1721-2.7061-1.5429,1.2116-3.8048,2.7061-4.6677,2.7061-.1721,2.7061,1.5429Z"/><path class="e" d="M31.0949,113.3661c0,1.715-1.2116,3.8048-2.7061,4.6677s-2.7061.1721-2.7061-1.5429c0-1.715,1.2116-3.8048,2.7061-4.6677s2.7061-.1721,2.7061,1.5429Z"/><path class="e" d="M60.1755,167.0782c-2.251,0-4.4395-1.1699-5.6416-3.2617-1.7891-3.1123-.7158-7.0859,2.3965-8.8745l122.248-70.2656c3.1143-1.79,7.0859-.7163,8.875,2.396s.7158,7.0859-2.3965,8.8745l-122.248,70.2661c-1.0215.5869-2.1348.8652-3.2334.8652Z"/><path class="g" d="M195.5931,171.9116l-47.9234,24.6189-7.2742,5.0195c-.3231.1633-.6373.3438-.941.5408-3.9738,2.4192-5.7535,7.0353-5.7179,11.6875l.1009,46.0879c.1935,4.4608-3.8129,10.0493-7.5894,12.0099-2.3326,1.7553-6.4418,2.4803-9.3611,2.4874-2.3464-.0021-4.65-.6293-6.6736-1.8171-20.2079-8.5279-21.9442-23.6822-21.9449-38.058l1.8269-45.2263c-.0097-14.3735-7.6758-27.6532-20.118-34.8496l107.3914-60.5746h0c17.7064,9.6944,18.6678,35.9736,18.2135,37.5998v21.1023c.0216,6.0354.0108,19.3717.0108,19.3717Z"/><path class="f" d="M101.5574,241.3791v4.7409c-.0805,3.1349.827,6.0811,2.5491,8.5567l54.0301-29.5804c-.1622-1.3742-.2704-13.8118-.3353-15.5296v-9.3994s0-14.0579-7.0197-8.891c-7.3874,5.4143-5.2999,22.619-10.5457,26.4668-5.2458,3.8477-3.5152-11.4744-10.5349-6.3213-7.0197,5.1532-3.5152,16.6276-10.5457,21.7808-7.0305,5.1532-3.5152-20.8464-10.5349-15.6932-7.0197,5.1532-7.0845,17.8919-7.0629,23.8696Z"/><path class="f" d="M149.8437,187.2502c-.1602.019-.3054-.0953-.3245-.2555-.0027-.0229-.0027-.0461,0-.069v-.5949c.0058-.1571.1349-.2813.292-.2812h0c.1613,0,.292.1307.292.292h0v.5841c.0188.1602-.0958.3053-.256.3241-.0012.0001-.0024.0003-.0036.0004Z"/><path class="f" d="M150.0168,209.7369c-.1514.0063-.2805-.1085-.292-.2596,0-.3786-.0649-.7571-.0865-1.0816.0008-.1613.1322-.2914.2935-.2906.1601.0008.2898.1304.2906.2906,0,.3677,0,.7463.0865,1.0816.0123.1608-.108.3012-.2688.3135-.0005,0-.0011,0-.0016.0001l-.0216-.0541ZM149.8761,207.498c-.1613,0-.292-.1307-.292-.292h0v-1.0816c0-.1613.1307-.292.292-.292h0c.1613,0,.292.1307.292.292h0v1.0816c-.0056.1589-.1331.2865-.292.292ZM149.8761,205.2482c-.1613,0-.292-.1307-.292-.292h0v-1.0816c0-.1613.1307-.292.292-.292h0c.1613,0,.292.1307.292.292h0v1.0816c0,.1613-.1307.292-.292.292h0ZM149.8761,202.9985c-.1613,0-.292-.1307-.292-.292h0v-1.0816c0-.1613.1307-.292.292-.292h0c.1613,0,.292.1307.292.292h0v1.0816c0,.1613-.1307.292-.292.292h0ZM149.8761,200.7487c-.1613,0-.292-.1307-.292-.292h0v-1.0816c.0008-.1613.1322-.2914.2935-.2906.1601.0008.2898.1304.2906.2906v1.0816c.001.1613-.1289.2928-.2902.2939-.0114,0-.0229-.0005-.0343-.0018h.0324ZM149.8761,198.4989c-.1613,0-.292-.1307-.292-.292h0v-1.0816c-.0008-.1613.1293-.2927.2906-.2935.1613-.0008.2927.1293.2935.2906v1.0845c.001.1613-.1289.2928-.2902.2939-.0114,0-.0229-.0005-.0343-.0018h.0324ZM149.8761,196.2492c-.1613,0-.292-.1307-.292-.292h0v-1.0816c.0008-.1613.1322-.2914.2935-.2906.1601.0008.2898.1304.2906.2906v1.0816c.001.1613-.1289.2928-.2902.2939-.0114,0-.0229-.0005-.0343-.0018h.0324ZM149.8761,193.9994h0c-.1613,0-.292-.1307-.292-.292h0v-1.0816c.0008-.1613.1322-.2914.2935-.2906.1601.0008.2898.1304.2906.2906v1.0816c.001.1613-.1289.2928-.2902.2939-.0114,0-.0229-.0005-.0343-.0018h.0324ZM149.8761,191.7497h0c-.1613,0-.292-.1307-.292-.292h0v-1.0816c.0008-.1613.1322-.2914.2935-.2906.1601.0008.2898.1304.2906.2906v1.0816c.001.1613-.1289.2928-.2902.2939-.0115,0-.0229-.0005-.0343-.0018h.0324ZM149.8761,189.4999h0c-.1613,0-.292-.1307-.292-.292h0v-1.0816c.0008-.1613.1322-.2914.2935-.2906.1601.0008.2898.1304.2906.2906v1.0816c.001.1613-.1289.2928-.2902.2939-.0115,0-.0229-.0005-.0343-.0018h.0324Z"/><path class="f" d="M150.2006,211.4351c-.1435.001-.2647-.1063-.2812-.2488,0-.1947-.0541-.3894-.0757-.5841-.0247-.1533.0795-.2977.2329-.3224.0053-.0008.0106-.0016.0159-.0021.1463-.0301.2893.064.3194.2103.0026.0127.0043.0255.0051.0385,0,.1947,0,.3894.0757.5733.0254.1593-.0832.309-.2424.3344-.0021.0003-.0042.0006-.0063.0009h-.0433Z"/><path class="g" d="M128.763,204.1233c-.1589-.0056-.2865-.1331-.292-.292v-.5949c-.0008-.1613.1293-.2927.2906-.2935.1613-.0008.2927.1293.2935.2906v.5978c-.0056.1589-.1331.2864-.292.292Z"/><path class="d" d="M149.8437,185.3033c.5516-.3137,1.0059-.1082,1.0059.4867-.0592.6754-.4315,1.2839-1.0059,1.6441-.5624.3137-1.0167.1082-1.0167-.4759.0583-.6813.4353-1.2949,1.0167-1.6549Z"/><path class="b" d="M195.5931,171.9116l-47.9234,24.6189-6.6431,5.3067c-.3231.1633-.6373.3438-.941.5408-3.9738,2.4192-6.3847,6.7481-6.3491,11.4002v46.6933c.0285,4.2227-3.2408,8.361-6.634,10.8746-2.3326,1.7553-7.2962,3.0103-10.2155,3.0174-2.3464-.0021-4.65-.6293-6.6736-1.8171-18.8182-7.8331-21.9442-23.6822-21.9449-38.058l1.8269-45.2263c-.0097-14.3735-7.6758-27.6532-20.118-34.8496l107.3914-60.5746h0c12.4481,7.1972,18.2033,23.2208,18.2135,37.5998v21.1023c.0216,6.0354.0108,19.3717.0108,19.3717Z"/><path class="e" d="M170.7456,181.2838c-.0171-13.7774-7.3636-26.505-19.2852-33.4111-5.6285-3.2496-12.8257-1.3211-16.0753,4.3074-1.0324,1.7882-1.5762,3.8166-1.5766,5.8814v100.7594c.0243,5.0399-2.4981,9.7512-6.706,12.5251h0c-.2812.1947-.5624.3677-.8545.53l48.1789-22.449-3.6813-68.1432Z"/><path class="g" d="M341.0944,270.1109l-108.6394,56.7375c-1.2771.667-2.8254.5313-3.967-.3478l-32.869-25.3091c-12.4503-7.183-20.1201-20.465-20.118-34.8388l-4.8567-81.6504c.0039-5.3686-1.0701-10.6834-3.1583-15.6293-.6532-1.539-1.3973-3.0379-2.2281-4.4887-3.5364-6.1126-7.2769-11.9293-13.3921-15.4611-3.9337-2.3137-8.1205-3.4235-12.1662-1.3116l28.0785-15.6432,79.3406-38.4258.1082-.0649c4.1369-2.4145,9.2535-2.4145,13.3904,0,12.452,7.1866,20.1218,20.4726,20.118,34.8496l-4.6148,77.2705c.0008,14.3787,7.6743,27.6641,20.1289,34.8496l44.8155,22.8942c2.6733,1.3657,2.6905,5.1797.0296,6.5693Z"/><path class="f" d="M217.5029,149.967c-2.7634.6325-5.4066,1.7066-7.8278,3.1809-14.8812,8.7406-26.9411,30.6199-26.9411,48.848v1.4107l26.8857-12.3088,7.8832-41.1308Z"/><path class="f" d="M217.5029,149.967l-7.8555,41.1307,26.6645-15.4621c.1961-1.6525.2977-3.3148.3043-4.9788,0-15.0195-8.0491-23.0133-19.1132-20.6898Z"/><path class="h" d="M232.9372,189.4934c1.7056-4.4487,2.8395-9.0958,3.3746-13.8301l-26.6645,15.4621,23.2899-1.6319Z"/><path class="f" d="M182.734,203.4065c.6085,17.26,12.4195,24.4516,26.9134,16.0983,9.93-5.7533,18.6153-17.3983,23.2623-30.0114l-23.2899,1.6043-26.8857,12.3088Z"/><path class="f" d="M232.9372,189.4934c1.7056-4.4487,2.8395-9.0958,3.3746-13.8301l-26.6645,15.4621,23.2899-1.6319Z"/><path class="g" d="M182.734,204.4576c-.1822.0406-.371.0406-.5532,0-.3026-.181-.4907-.505-.4979-.8575v-1.466c0-18.56,12.3088-40.8818,27.4666-49.7884,2.5184-1.5228,5.2636-2.634,8.1321-3.2916.3489-.0839.7162.0211.9681.2766.2436.2482.3563.5965.3043.9404l-7.8555,41.1307c-.078.3356-.3009.6193-.6085.7745l-26.8857,12.3088c-.1571.0208-.3167.0114-.4703-.0277ZM216.1199,151.4053c-2.0868.6784-4.0836,1.6072-5.9469,2.766-14.494,8.5194-26.3049,29.8731-26.4155,47.7139l24.8942-11.396,7.4683-39.0839Z"/><path class="g" d="M209.6473,192.1488c-.2186.004-.4324-.064-.6085-.1936-.3367-.2353-.5001-.6492-.4149-1.0511l7.8555-41.1307c.0635-.4191.3854-.7522.8021-.8298,4.6063-1.1884,9.5032-.1661,13.2492,2.766,4.5916,3.7341,7.1363,10.4556,7.1363,18.9196-.0097,1.7007-.1113,3.3997-.3043,5.0895-.0313.338-.2282.6385-.5256.8021l-26.6645,15.4621c-.153.1099-.3371.168-.5255.166ZM218.4156,150.8798l-7.3023,38.1434,24.2027-14.0514c.1625-1.4326.2456-2.8732.2489-4.315,0-7.8278-2.2682-13.8301-6.3619-17.2876-3.0503-2.3853-7.0004-3.2968-10.7875-2.4894h0Z"/><path class="g" d="M209.6473,192.1488c-.5805.0024-1.0531-.4661-1.0555-1.0466-.0016-.3789.2009-.7294.53-.9173l26.6645-15.4621c.339-.2098.7674-.2098,1.1064,0,.3427.2072.528.5995.4702.9958-.5399,4.8378-1.6924,9.5873-3.4299,14.1344-.16.3715-.5101.6261-.9128.6639l-23.2899,1.6043-.0829.0276ZM234.9841,177.5996l-20.8835,12.2811,18.0898-1.2447c1.2943-3.5772,2.2302-7.2742,2.7937-11.0364h0ZM232.9372,189.4935"/><path class="g" d="M198.196,224.041c-2.5499.0236-5.0635-.6048-7.3023-1.8256-5.532-3.0979-8.879-9.7641-9.1832-18.7536-.0208-.4324.2188-.8353.6085-1.0234l26.8857-12.3088h.3596l23.2899-1.6043c.3601-.0113.706.1413.9404.4149.1495.3151.1495.6807,0,.9958-4.8682,13.2216-13.8301,24.8942-23.7325,30.5646-3.5851,2.181-7.6721,3.4005-11.8662,3.5405ZM183.8403,204.0704c.4149,7.8555,3.2916,13.6365,8.0768,16.2919,4.7852,2.6554,10.7875,1.9362,17.2323-1.7703,8.9896-5.2001,17.3983-15.794,22.1282-27.9368l-21.4367,1.4936-26.0006,11.9216Z"/><path class="c" d="M220.9991,278.1213c3.7571-2.0212,8.2518-2.1336,12.1052-.3026,3.2079,1.846,3.0263,4.9783-.5145,6.9908-3.7584,2.0164-8.2508,2.1287-12.1052.3026-3.2079-1.7704-2.9809-4.9782.5145-6.9908Z"/><path class="c" d="M218.2281,268.9049l2.0553,3.6377c3.9486-.9089,8.0435-.9832,12.0225-.2183l2.7828-3.7468c-5.5812-1.0723-11.3253-.9607-16.8606.3274Z"/><path class="f" d="M243.2009,271.5059c-2.3481-1.3547-5.1265-2.321-8.1166-2.9225l-2.7784,3.741c-.0229-.0044-.0461-.0053-.0689-.0096,2.1777.4269,4.2021,1.1206,5.9075,2.1013,6.4206,3.6922,5.893,9.9854-1.1095,14.0232h.0546c-6.9843,4.0379-17.8611,4.2925-24.2634.6002-6.4022-3.6923-5.9341-9.9623,1.0368-14.0233,2.1711-1.2648,6.6129-2.518,6.4205-2.4737l-2.0522-3.632c-3.2466.7501-6.3319,1.886-9.0063,3.432-9.7854,5.6565-10.4402,14.4234-1.4733,19.6071,8.9669,5.1837,24.1906,4.82,33.9942-.8367,9.8036-5.6565,10.3855-14.4053,1.4551-19.6071Z"/><path class="c" d="M264.7359,252.7798c3.6417-1.9538,7.9946-2.0626,11.7294-.2933,3.0936,1.7887,2.9323,4.8237-.5132,6.7737-3.6385,1.9655-7.9971,2.0745-11.7294.2933-3.0936-1.7887-2.8737-4.853.5132-6.7737Z"/><path class="c" d="M288.0346,244.9905c-6.7456-4.5249-17.4126-4.938-25.8204-1.4457l2.8887,3.4359c5.9871-2.4971,13.6041-2.1968,18.4132,1.0326.7994.5019,1.533,1.1342,2.1786,1.8776l5.3738-2.2155c-.8991-1.0547-1.9202-1.9584-3.0339-2.6849Z"/><path class="c" d="M286.0682,243.8577c.1731.0881.3507.1706.5201.2631-.1694-.0926-.3469-.1751-.5201-.2631Z"/><path class="f" d="M291.0564,247.6804l-5.3618,2.2105c-.0812-.0935-.1756-.1691-.2596-.259,3.5694,3.8545,2.5682,9.2126-2.8228,12.8387h0c-6.213,4.1682-15.8473,4.431-21.5439.6195-5.6967-3.8114-5.277-10.3078.936-14.476.9575-.6423,2.0028-1.1804,3.0958-1.6366l-2.8791-3.4245c-1.5362.6409-3.0045,1.3976-4.3479,2.3011-8.6821,5.8392-9.2631,14.8891-1.291,20.2401,7.9721,5.351,21.4632,4.9755,30.1453-.8637,7.3578-4.9485,8.8728-12.1953,4.329-17.5502Z"/><path class="c" d="M282.695,242.4846c.2389.0753.4747.1556.7093.2377-.2348-.0823-.4702-.1622-.7093-.2377Z"/><path class="c" d="M279.1316,241.6266c.2568.043.5072.1007.7611.1505-.254-.05-.5043-.1073-.7611-.1505Z"/><path class="c" d="M285.0412,243.3647c-.2121-.0936-.4285-.1803-.6452-.2678.2165.0874.4332.1743.6452.2678Z"/><path class="c" d="M290.8776,247.4665c-.1404-.1582-.2792-.3163-.4304-.4709.147.1523.289.3112.4304.4709Z"/><path class="c" d="M289.353,245.9803c.0391.0329.0794.0639.1182.0973-.0387-.0327-.079-.0648-.1182-.0973Z"/><path class="c" d="M284.4628,248.7135c.256.2123.4872.4337.711.6577-.2306-.2298-.4627-.4547-.711-.6577Z"/><path class="c" d="M276.3411,241.308c.3669.0259.7348.0478,1.0981.0867-.3634-.0392-.7311-.0606-1.0981-.0867Z"/><path class="c" d="M280.9385,241.9963c.2526.06.4998.13.7487.1971-.2491-.0672-.4959-.1369-.7487-.1971Z"/><path class="c" d="M270.6526,241.4142c.453-.0495.9066-.0851,1.3603-.1154-.4542.03-.9069.0661-1.3603.1154Z"/><path class="c" d="M264.0931,242.8486c2.0135-.6756,4.1217-1.1426,6.2523-1.3961-2.1331.2525-4.2393.7188-6.2523,1.3961Z"/><path class="c" d="M274.4345,241.2305c.3951.0035.7899.0093,1.1825.0276-.3929-.0187-.7871-.0238-1.1825-.0276Z"/><path class="c" d="M262.5313,243.4243c.3857-.1548.7736-.3057,1.1678-.4441-.3944.139-.7821.2887-1.1678.4441Z"/><path class="c" d="M279.4171,246.1292c.0185.0055.0372.0106.0556.0161-.0184-.0056-.0371-.0106-.0556-.0161Z"/><path class="c" d="M273.7986,241.2281c-.4195.0043-.8386.0181-1.2591.039.4202-.0212.84-.0343,1.2591-.039Z"/><path class="c" d="M281.5581,246.9262c.0403.0184.0789.0386.119.0574-.04-.0187-.0786-.039-.119-.0574Z"/><path class="c" d="M280.4777,246.4825c.0494.0183.0984.0373.1476.0561-.0492-.0187-.0981-.0378-.1476-.0561Z"/><path class="e" d="M237.4782,307.5381c-.3711,0-.7275-.207-.9004-.5625-.2412-.4971-.0342-1.0957.4619-1.3369l60.2812-29.3184c.498-.2402,1.0967-.0332,1.3369.4619.2412.4971.0342,1.0957-.4619,1.3369l-60.2812,29.3184c-.1406.0684-.29.1006-.4365.1006Z"/><path class="e" d="M92.7653,152.8189c-.3564,0-.7021-.1909-.8818-.5273-.2617-.4868-.0781-1.0928.4082-1.354l51.543-27.6421c.4873-.2617,1.0938-.0776,1.3535.4087.2617.4868.0781,1.0928-.4082,1.354l-51.543,27.6421c-.1504.0806-.3125.1187-.4717.1187Z"/><path class="e" d="M97.5056,161.3604c-.3564,0-.7021-.1914-.8818-.5273-.2617-.4863-.0781-1.0928.4082-1.354l51.543-27.6426c.4873-.2617,1.0938-.0776,1.3535.4087.2617.4868.0781,1.0928-.4082,1.354l-51.543,27.6421c-.1504.0811-.3125.1191-.4717.1191Z"/><path class="e" d="M185.8923,244.5206c-.3818,0-.7471-.2197-.9131-.5898-.2266-.5039-.001-1.0957.502-1.3223l35.0381-15.7363c.5068-.2275,1.0957-.001,1.3223.502.2266.5039.001,1.0957-.502,1.3223l-35.0381,15.7363c-.1338.0596-.2725.0879-.4092.0879Z"/><path class="e" d="M187.197,255.6202c-.3564,0-.7021-.1914-.8818-.5273-.2617-.4863-.0781-1.0928.4082-1.3535l50.7344-27.208c.4873-.2637,1.0928-.0781,1.3535.4082.2617.4863.0781,1.0928-.4082,1.3535l-50.7344,27.208c-.1504.0811-.3125.1191-.4717.1191Z"/><path class="e" d="M187.5436,265.3291c-.3613,0-.71-.1963-.8877-.5381-.2549-.4902-.0645-1.0938.4248-1.3486l47.334-24.6299c.4902-.2568,1.0947-.0635,1.3486.4248.2549.4902.0645,1.0938-.4248,1.3486l-47.334,24.6299c-.1475.0771-.3057.1133-.4609.1133Z"/><path class="e" d="M250.239,149.4966c-.3213,0-.6367-.1543-.8291-.4399-.3096-.4575-.1895-1.0796.2686-1.3887l15.4287-10.4268c.4561-.3091,1.0811-.188,1.3877.2686.3096.4575.1895,1.0796-.2686,1.3887l-15.4287,10.4268c-.1709.1157-.3662.1714-.5586.1714Z"/><path class="e" d="M249.7614,157.814c-.3447,0-.6807-.1787-.8662-.4985-.2773-.478-.1143-1.0898.3643-1.3667l14.4209-8.3564c.4775-.2754,1.0898-.1133,1.3662.3638.2773.478.1143,1.0898-.3643,1.3667l-14.4209,8.3564c-.1572.0913-.3301.1348-.5.1348Z"/><path class="e" d="M250.5114,166.0059c-.3447,0-.6797-.1777-.8652-.498-.2783-.4775-.1152-1.0889.3623-1.3662l14.624-8.4951c.4736-.2773,1.0889-.1157,1.3662.3623.2783.4775.1152,1.0898-.3623,1.3672l-14.624,8.4941c-.1572.0918-.3301.1357-.501.1357Z"/><path class="e" d="M250.239,184.2569c-.3447,0-.6807-.1787-.8662-.499-.2773-.4775-.1143-1.0889.3643-1.3662l14.4199-8.3564c.4766-.2773,1.0898-.1133,1.3662.3643.2773.4775.1143,1.0889-.3643,1.3662l-14.4199,8.3564c-.1572.0918-.3301.1348-.5.1348Z"/><path class="e" d="M250.239,193.0518c-.3574,0-.7021-.1914-.8828-.5273-.2607-.4873-.0771-1.0938.4092-1.3545l12.3037-6.5898c.4844-.2598,1.0918-.0762,1.3535.4092.2607.4873.0771,1.0938-.4092,1.3545l-12.3037,6.5898c-.1494.0801-.3115.1182-.4707.1182Z"/><path class="e" d="M250.7155,201.3858c-.3447,0-.6807-.1787-.8662-.499-.2773-.4775-.1143-1.0889.3643-1.3662l14.4199-8.3564c.4766-.2783,1.0898-.1133,1.3662.3643.2773.4775.1143,1.0889-.3643,1.3662l-14.4199,8.3564c-.1572.0918-.3301.1348-.5.1348Z"/><path class="f" d="M106.5954,201.6281l-5.411,3.1564c-.7211.4206-1.6266-.0995-1.6266-.9343l-1.8404-29.0874c0-.3847.2043-.7404.5366-.9343l5.411-3.1564c.7211-.4206,1.6266.0995,1.6266.9343l1.8404,29.0874c0,.3847-.2043.7404-.5366.9343Z"/><path class="f" d="M118.2724,195.6318l-5.411,3.1564c-.7211.4206-1.6266-.0995-1.6266-.9343v-10.5786c0-.3847.2043-.7404.5366-.9343l5.411-3.1564c.7211-.4206,1.6266.0995,1.6266.9343v10.5786c0,.3847-.2043.7404-.5366.9343Z"/><path class="f" d="M130.8961,188.6888l-5.411,3.1564c-.7211.4206-1.6266-.0995-1.6266-.9343l.6991-19.7598c0-.3847.2043-.7404.5366-.9343l5.411-3.1564c.7211-.4206,1.6266.0995,1.6266.9343l-.6991,19.7598c0,.3847-.2043.7404-.5366.9343Z"/><path class="e" d="M162.4108,116.4966c-.3447,0-.6807-.1787-.8662-.4985-.2773-.478-.1143-1.0898.3643-1.3667l14.4199-8.3569c.4775-.2759,1.0898-.1133,1.3662.3638.2773.478.1143,1.0898-.3643,1.3667l-14.4199,8.3569c-.1572.0913-.3301.1348-.5.1348Z"/><path class="e" d="M166.5202,125.1431c-.3447,0-.6807-.1787-.8662-.4985-.2773-.478-.1143-1.0898.3643-1.3667l14.4199-8.3564c.4766-.2754,1.0898-.1133,1.3662.3638.2773.478.1143,1.0898-.3643,1.3667l-14.4199,8.3564c-.1572.0913-.3301.1348-.5.1348Z"/><path class="f" d="M178.0956,157.2237l43.5795-24.5275c.5207-.2793.7272-.928.4505-1.4501-.1906-.3596-.3862-.7165-.5886-1.0698-.168-.2904-.3373-.5794-.5072-.8674-.295-.5-.9337-.6758-1.4453-.4014l-43.6304,24.5548c-.5492.2945-.732.9863-.4051,1.5169.374.607.7427,1.2199,1.1074,1.8378.2948.4994.9282.6808,1.4392.4067Z"/><path class="f" d="M172.7869,149.3639l29.1217-15.7095c.5754-.3086.7566-1.0594.3703-1.5857-.4493-.6123-.9128-1.2102-1.391-1.7934-.3267-.3983-.8953-.5031-1.3492-.2597l-29.2265,15.7657c-.6325.3392-.7537,1.1781-.2657,1.7043.4806.5181.9453,1.052,1.3946,1.6011.3286.4016.8885.5224,1.3458.2772Z"/><path class="f" d="M162.0274,141.4677c-.796-.3727-.8058-1.5047-.0313-1.9201l41.8466-20.6021c.6121-.331,1.3522-.3143,1.9485.0443.6573.3953,1.4619.8874,1.7721,1.1106.645.4643.5682,1.4504-.1322,1.826l-41.8343,20.596c-.5402.2922-1.193.2809-1.7235-.0287-.6452-.3764-1.4813-.8554-1.8459-1.0261Z"/></svg>